<svg width="640" height="480" xmlns="http://www.w3.org/2000/svg" xmlns:svg="http://www.w3.org/2000/svg" xmlns:xlink="http://www.w3.org/1999/xlink">
 <defs>
  <symbol id="svg_1" viewBox="0 0 100 125" y="0px" x="0px" xmlns="http://www.w3.org/2000/svg" xmlns:svg="http://www.w3.org/2000/svg">
   <g transform="translate(0,-952.36218)">
    <path fill="#000000" stroke-width="2" transform="translate(0,952.36218)" d="m12,22c-2.7527,0 -5,2.2473 -5,5l0,46c0,2.7527 2.2473,5 5,5l76,0c2.7527,0 5,-2.2473 5,-5l0,-46c0,-2.7527 -2.2473,-5 -5,-5a1.0001,1.0001 0 1 0 0,2c0.70522,0 1.33626,0.26167 1.84375,0.65625l-39.84375,32.0625l-39.84375,-32.0625c0.50749,-0.39458 1.13853,-0.65625 1.84375,-0.65625l70,0a1.0001,1.0001 0 1 0 0,-2l-70,0zm-2.90625,4.34375l28.84375,23.25l-28.875,24.03125c-0.03939,-0.19683 -0.0625,-0.41509 -0.0625,-0.625l0,-46c0,-0.23457 0.04483,-0.43829 0.09375,-0.65625zm81.8125,0c0.04892,0.21796 0.09375,0.42168 0.09375,0.65625l0,46c0,0.20991 -0.02311,0.42817 -0.0625,0.625l-28.875,-24.0625l28.84375,-23.21875zm-51.40625,24.5l9.875,7.9375a1.0001,1.0001 0 0 0 1.25,0l9.875,-7.9375l29.375,24.5c-0.5129,0.41157 -1.15322,0.65625 -1.875,0.65625l-76,0c-0.72178,0 -1.3621,-0.24468 -1.875,-0.65625l29.375,-24.5z"/>
   </g>
  </symbol>
 </defs>
 <g>
  <use x="-120.000015" y="-46.874999" transform="matrix(1.7360801955473446,0,0,1.7360801955473446,-24.5227602936502,-10.601958298805583) " xlink:href="#svg_1" id="svg_2"/>
  <g id="svg_3"/>
  <image xlink:href="images/logo.png" id="svg_4" height="48" width="48" y="1292.362183" x="190"/>
  <image xlink:href="images/logo.png" id="svg_5" height="48" width="48" y="1294.362183" x="90"/>
 </g>
</svg>