<svg xmlns:dc="http://purl.org/dc/elements/1.1/" xmlns:cc="http://creativecommons.org/ns#" xmlns:rdf="http://www.w3.org/1999/02/22-rdf-syntax-ns#" xmlns:svg="http://www.w3.org/2000/svg" xmlns="http://www.w3.org/2000/svg" xmlns:sodipodi="http://sodipodi.sourceforge.net/DTD/sodipodi-0.dtd" xmlns:inkscape="http://www.inkscape.org/namespaces/inkscape" version="1.1" x="0px" y="0px" viewBox="0 0 100 125"><g transform="translate(0,-952.36218)"><path style="font-size:medium;font-style:normal;font-variant:normal;font-weight:normal;font-stretch:normal;text-indent:0;text-align:start;text-decoration:none;line-height:normal;letter-spacing:normal;word-spacing:normal;text-transform:none;direction:ltr;block-progression:tb;writing-mode:lr-tb;text-anchor:start;baseline-shift:baseline;opacity:1;color:#000000;fill:#000000;fill-opacity:1;stroke:none;stroke-width:1.99999988000000010;marker:none;visibility:visible;display:inline;overflow:visible;enable-background:accumulate;font-family:Sans;-inkscape-font-specification:Sans" d="M 50 17.59375 L 49.28125 18.28125 L 14.375 53.28125 L 12.6875 55 L 15.09375 55 L 24 55 L 24 81 L 24 82 L 25 82 L 43 82 L 44 82 L 44 81 L 44 65 L 56 65 L 56 81 L 56 82 L 57 82 L 76 82 L 76 80 L 58 80 L 58 64 L 58 63 L 57 63 L 43 63 L 42 63 L 42 64 L 42 80 L 26 80 L 26 54 L 26 53 L 25 53 L 17.53125 53 L 50 20.4375 L 82.46875 53 L 75 53 L 74 53 L 74 54 L 74 74 L 76 74 L 76 55 L 84.90625 55 L 87.3125 55 L 85.625 53.28125 L 50.71875 18.28125 L 50 17.59375 z " transform="translate(0,952.36218)"/></g><text x="0" y="115" fill="#000000" font-size="5px" font-weight="bold" font-family="'Helvetica Neue', Helvetica, Arial-Unicode, Arial, Sans-serif"></text><text x="0" y="120" fill="#000000" font-size="5px" font-weight="bold" font-family="'Helvetica Neue', Helvetica, Arial-Unicode, Arial, Sans-serif"></text></svg>