<?xml version="1.0" encoding="utf-8"?>
<!DOCTYPE svg PUBLIC "-//W3C//DTD SVG 1.1//EN" "http://www.w3.org/Graphics/SVG/1.1/DTD/svg11.dtd">
<svg version="1.1" id="Layer_1" xmlns="http://www.w3.org/2000/svg" xmlns:xlink="http://www.w3.org/1999/xlink" x="0px" y="0px"
width="594px" height="594px" viewBox="0 0 594 594" enable-background="new 0 0 594 594" xml:space="preserve">
<rect x="0" y="0" width="594" height="594" fill="rgb(255,255,255)" /><g transform="translate(36,36)"><g transform="translate(216,0) scale(0.036,0.036)"><g transform="" style="fill: rgb(0, 0, 0);">
<path d="M38.5,211.5c0,42.907,0,123.188,0,171.55c0,23.857,0,39.95,0,39.95v17.5V470v30h423v-30v-29.5V423c0,0,0-16.216,0-39.95
	c0-51.332,0-137.84,0-171.55C461.5,94.699,366.8,0,250,0C133.191,0,38.5,94.699,38.5,211.5z"/>
</g></g><g transform="translate(252,0) scale(0.036,0.036)"><g transform="" style="fill: rgb(0, 0, 0);">
<path d="M38.5,211.5c0,42.907,0,123.188,0,171.55c0,23.857,0,39.95,0,39.95v17.5V470v30h423v-30v-29.5V423c0,0,0-16.216,0-39.95
	c0-51.332,0-137.84,0-171.55C461.5,94.699,366.8,0,250,0C133.191,0,38.5,94.699,38.5,211.5z"/>
</g></g><g transform="translate(288,0) scale(0.036,0.036)"><g transform="" style="fill: rgb(0, 0, 0);">
<path d="M38.5,211.5c0,42.907,0,123.188,0,171.55c0,23.857,0,39.95,0,39.95v17.5V470v30h423v-30v-29.5V423c0,0,0-16.216,0-39.95
	c0-51.332,0-137.84,0-171.55C461.5,94.699,366.8,0,250,0C133.191,0,38.5,94.699,38.5,211.5z"/>
</g></g><g transform="translate(306,0) scale(0.036,0.036)"><g transform="" style="fill: rgb(0, 0, 0);">
<path d="M38.5,211.5c0,42.907,0,123.188,0,171.55c0,23.857,0,39.95,0,39.95v17.5V470v30h423v-30v-29.5V423c0,0,0-16.216,0-39.95
	c0-51.332,0-137.84,0-171.55C461.5,94.699,366.8,0,250,0C133.191,0,38.5,94.699,38.5,211.5z"/>
</g></g><g transform="translate(324,0) scale(0.036,0.036)"><g transform="" style="fill: rgb(0, 0, 0);">
<path d="M38.5,211.5c0,42.907,0,123.188,0,171.55c0,23.857,0,39.95,0,39.95v17.5V470v30h423v-30v-29.5V423c0,0,0-16.216,0-39.95
	c0-51.332,0-137.84,0-171.55C461.5,94.699,366.8,0,250,0C133.191,0,38.5,94.699,38.5,211.5z"/>
</g></g><g transform="translate(342,0) scale(0.036,0.036)"><g transform="" style="fill: rgb(0, 0, 0);">
<path d="M250,38.5c116.813,0,211.5,94.693,211.5,211.5c0,116.813-94.687,211.5-211.5,211.5c-116.807,0-211.5-94.687-211.5-211.5
	C38.5,133.193,133.193,38.5,250,38.5z"/>
</g></g><g transform="translate(162,18) scale(0.036,0.036)"><g transform="" style="fill: rgb(0, 0, 0);">
<path d="M250,38.5c116.813,0,211.5,94.693,211.5,211.5c0,116.813-94.687,211.5-211.5,211.5c-116.807,0-211.5-94.687-211.5-211.5
	C38.5,133.193,133.193,38.5,250,38.5z"/>
</g></g><g transform="translate(180,18) scale(0.036,0.036)"><g transform="" style="fill: rgb(0, 0, 0);">
<path d="M250,38.5c116.813,0,211.5,94.693,211.5,211.5c0,116.813-94.687,211.5-211.5,211.5c-116.807,0-211.5-94.687-211.5-211.5
	C38.5,133.193,133.193,38.5,250,38.5z"/>
</g></g><g transform="translate(198,18) scale(0.036,0.036)"><g transform="" style="fill: rgb(0, 0, 0);">
<path d="M250,38.5c116.813,0,211.5,94.693,211.5,211.5c0,116.813-94.687,211.5-211.5,211.5c-116.807,0-211.5-94.687-211.5-211.5
	C38.5,133.193,133.193,38.5,250,38.5z"/>
</g></g><g transform="translate(216,18) scale(0.036,0.036)"><g transform="" style="fill: rgb(0, 0, 0);">
<path d="M461.5,288.5c0-42.907,0-123.188,0-171.55c0-23.857,0-39.95,0-39.95V59.5V30V0h-423v30v29.5V77c0,0,0,16.216,0,39.95
	c0,51.332,0,137.84,0,171.55C38.5,405.301,133.2,500,250,500C366.809,500,461.5,405.301,461.5,288.5z"/>
</g></g><g transform="translate(234,18) scale(0.036,0.036)"><g transform="" style="fill: rgb(0, 0, 0);">
<path d="M38.5,211.5c0,42.907,0,123.188,0,171.55c0,23.857,0,39.95,0,39.95v17.5V470v30h423v-30v-29.5V423c0,0,0-16.216,0-39.95
	c0-51.332,0-137.84,0-171.55C461.5,94.699,366.8,0,250,0C133.191,0,38.5,94.699,38.5,211.5z"/>
</g></g><g transform="translate(252,18) scale(0.036,0.036)"><g transform="" style="fill: rgb(0, 0, 0);">
<polygon points="38.5,250 38.5,500 461.5,500 461.5,250 461.5,0 38.5,0 "/>
</g></g><g transform="translate(270,18) scale(0.036,0.036)"><g transform="" style="fill: rgb(0, 0, 0);">
<path d="M250,38.5c116.813,0,211.5,94.693,211.5,211.5c0,116.813-94.687,211.5-211.5,211.5c-116.807,0-211.5-94.687-211.5-211.5
	C38.5,133.193,133.193,38.5,250,38.5z"/>
</g></g><g transform="translate(288,18) scale(0.036,0.036)"><g transform="" style="fill: rgb(0, 0, 0);">
<path d="M461.5,288.5c0-42.907,0-123.188,0-171.55c0-23.857,0-39.95,0-39.95V59.5V30V0h-423v30v29.5V77c0,0,0,16.216,0,39.95
	c0,51.332,0,137.84,0,171.55C38.5,405.301,133.2,500,250,500C366.809,500,461.5,405.301,461.5,288.5z"/>
</g></g><g transform="translate(306,18) scale(0.036,0.036)"><g transform="" style="fill: rgb(0, 0, 0);">
<path d="M461.5,288.5c0-42.907,0-123.188,0-171.55c0-23.857,0-39.95,0-39.95V59.5V30V0h-423v30v29.5V77c0,0,0,16.216,0,39.95
	c0,51.332,0,137.84,0,171.55C38.5,405.301,133.2,500,250,500C366.809,500,461.5,405.301,461.5,288.5z"/>
</g></g><g transform="translate(324,18) scale(0.036,0.036)"><g transform="" style="fill: rgb(0, 0, 0);">
<polygon points="38.5,250 38.5,500 461.5,500 461.5,250 461.5,0 38.5,0 "/>
</g></g><g transform="translate(360,18) scale(0.036,0.036)"><g transform="" style="fill: rgb(0, 0, 0);">
<path d="M38.5,211.5c0,42.907,0,123.188,0,171.55c0,23.857,0,39.95,0,39.95v17.5V470v30h423v-30v-29.5V423c0,0,0-16.216,0-39.95
	c0-51.332,0-137.84,0-171.55C461.5,94.699,366.8,0,250,0C133.191,0,38.5,94.699,38.5,211.5z"/>
</g></g><g transform="translate(144,36) scale(0.036,0.036)"><g transform="" style="fill: rgb(0, 0, 0);">
<path d="M38.5,211.5c0,42.907,0,123.188,0,171.55c0,23.857,0,39.95,0,39.95v17.5V470v30h423v-30v-29.5V423c0,0,0-16.216,0-39.95
	c0-51.332,0-137.84,0-171.55C461.5,94.699,366.8,0,250,0C133.191,0,38.5,94.699,38.5,211.5z"/>
</g></g><g transform="translate(234,36) scale(0.036,0.036)"><g transform="" style="fill: rgb(0, 0, 0);">
<path d="M461.5,288.5c0-42.907,0-123.188,0-171.55c0-23.857,0-39.95,0-39.95V59.5V30V0h-423v30v29.5V77c0,0,0,16.216,0,39.95
	c0,51.332,0,137.84,0,171.55C38.5,405.301,133.2,500,250,500C366.809,500,461.5,405.301,461.5,288.5z"/>
</g></g><g transform="translate(252,36) scale(0.036,0.036)"><g transform="" style="fill: rgb(0, 0, 0);">
<polygon points="38.5,250 38.5,500 461.5,500 461.5,250 461.5,0 38.5,0 "/>
</g></g><g transform="translate(324,36) scale(0.036,0.036)"><g transform="" style="fill: rgb(0, 0, 0);">
<polygon points="38.5,250 38.5,500 461.5,500 461.5,250 461.5,0 38.5,0 "/>
</g></g><g transform="translate(360,36) scale(0.036,0.036)"><g transform="" style="fill: rgb(0, 0, 0);">
<path d="M461.5,288.5c0-42.907,0-123.188,0-171.55c0-23.857,0-39.95,0-39.95V59.5V30V0h-423v30v29.5V77c0,0,0,16.216,0,39.95
	c0,51.332,0,137.84,0,171.55C38.5,405.301,133.2,500,250,500C366.809,500,461.5,405.301,461.5,288.5z"/>
</g></g><g transform="translate(144,54) scale(0.036,0.036)"><g transform="" style="fill: rgb(0, 0, 0);">
<path d="M461.5,288.5c0-42.907,0-123.188,0-171.55c0-23.857,0-39.95,0-39.95V59.5V30V0h-423v30v29.5V77c0,0,0,16.216,0,39.95
	c0,51.332,0,137.84,0,171.55C38.5,405.301,133.2,500,250,500C366.809,500,461.5,405.301,461.5,288.5z"/>
</g></g><g transform="translate(162,54) scale(0.036,0.036)"><g transform="" style="fill: rgb(0, 0, 0);">
<path d="M38.5,211.5c0,42.907,0,123.188,0,171.55c0,23.857,0,39.95,0,39.95v17.5V470v30h423v-30v-29.5V423c0,0,0-16.216,0-39.95
	c0-51.332,0-137.84,0-171.55C461.5,94.699,366.8,0,250,0C133.191,0,38.5,94.699,38.5,211.5z"/>
</g></g><g transform="translate(198,54) scale(0.036,0.036)"><g transform="" style="fill: rgb(0, 0, 0);">
<path d="M38.5,211.5c0,42.907,0,123.188,0,171.55c0,23.857,0,39.95,0,39.95v17.5V470v30h423v-30v-29.5V423c0,0,0-16.216,0-39.95
	c0-51.332,0-137.84,0-171.55C461.5,94.699,366.8,0,250,0C133.191,0,38.5,94.699,38.5,211.5z"/>
</g></g><g transform="translate(216,54) scale(0.036,0.036)"><g transform="" style="fill: rgb(0, 0, 0);">
<path d="M38.5,211.5c0,42.907,0,123.188,0,171.55c0,23.857,0,39.95,0,39.95v17.5V470v30h423v-30v-29.5V423c0,0,0-16.216,0-39.95
	c0-51.332,0-137.84,0-171.55C461.5,94.699,366.8,0,250,0C133.191,0,38.5,94.699,38.5,211.5z"/>
</g></g><g transform="translate(252,54) scale(0.036,0.036)"><g transform="" style="fill: rgb(0, 0, 0);">
<path d="M461.5,288.5c0-42.907,0-123.188,0-171.55c0-23.857,0-39.95,0-39.95V59.5V30V0h-423v30v29.5V77c0,0,0,16.216,0,39.95
	c0,51.332,0,137.84,0,171.55C38.5,405.301,133.2,500,250,500C366.809,500,461.5,405.301,461.5,288.5z"/>
</g></g><g transform="translate(270,54) scale(0.036,0.036)"><g transform="" style="fill: rgb(0, 0, 0);">
<path d="M250,38.5c116.813,0,211.5,94.693,211.5,211.5c0,116.813-94.687,211.5-211.5,211.5c-116.807,0-211.5-94.687-211.5-211.5
	C38.5,133.193,133.193,38.5,250,38.5z"/>
</g></g><g transform="translate(306,54) scale(0.036,0.036)"><g transform="" style="fill: rgb(0, 0, 0);">
<path d="M38.5,211.5c0,42.907,0,123.188,0,171.55c0,23.857,0,39.95,0,39.95v17.5V470v30h423v-30v-29.5V423c0,0,0-16.216,0-39.95
	c0-51.332,0-137.84,0-171.55C461.5,94.699,366.8,0,250,0C133.191,0,38.5,94.699,38.5,211.5z"/>
</g></g><g transform="translate(324,54) scale(0.036,0.036)"><g transform="" style="fill: rgb(0, 0, 0);">
<path d="M461.5,288.5c0-42.907,0-123.188,0-171.55c0-23.857,0-39.95,0-39.95V59.5V30V0h-423v30v29.5V77c0,0,0,16.216,0,39.95
	c0,51.332,0,137.84,0,171.55C38.5,405.301,133.2,500,250,500C366.809,500,461.5,405.301,461.5,288.5z"/>
</g></g><g transform="translate(342,54) scale(0.036,0.036)"><g transform="" style="fill: rgb(0, 0, 0);">
<path d="M38.5,211.5c0,42.907,0,123.188,0,171.55c0,23.857,0,39.95,0,39.95v17.5V470v30h423v-30v-29.5V423c0,0,0-16.216,0-39.95
	c0-51.332,0-137.84,0-171.55C461.5,94.699,366.8,0,250,0C133.191,0,38.5,94.699,38.5,211.5z"/>
</g></g><g transform="translate(162,72) scale(0.036,0.036)"><g transform="" style="fill: rgb(0, 0, 0);">
<path d="M461.5,288.5c0-42.907,0-123.188,0-171.55c0-23.857,0-39.95,0-39.95V59.5V30V0h-423v30v29.5V77c0,0,0,16.216,0,39.95
	c0,51.332,0,137.84,0,171.55C38.5,405.301,133.2,500,250,500C366.809,500,461.5,405.301,461.5,288.5z"/>
</g></g><g transform="translate(198,72) scale(0.036,0.036)"><g transform="" style="fill: rgb(0, 0, 0);">
<path d="M461.5,288.5c0-42.907,0-123.188,0-171.55c0-23.857,0-39.95,0-39.95V59.5V30V0h-423v30v29.5V77c0,0,0,16.216,0,39.95
	c0,51.332,0,137.84,0,171.55C38.5,405.301,133.2,500,250,500C366.809,500,461.5,405.301,461.5,288.5z"/>
</g></g><g transform="translate(216,72) scale(0.036,0.036)"><g transform="" style="fill: rgb(0, 0, 0);">
<polygon points="38.5,250 38.5,500 461.5,500 461.5,250 461.5,0 38.5,0 "/>
</g></g><g transform="translate(288,72) scale(0.036,0.036)"><g transform="" style="fill: rgb(0, 0, 0);">
<path d="M250,38.5c116.813,0,211.5,94.693,211.5,211.5c0,116.813-94.687,211.5-211.5,211.5c-116.807,0-211.5-94.687-211.5-211.5
	C38.5,133.193,133.193,38.5,250,38.5z"/>
</g></g><g transform="translate(306,72) scale(0.036,0.036)"><g transform="" style="fill: rgb(0, 0, 0);">
<polygon points="38.5,250 38.5,500 461.5,500 461.5,250 461.5,0 38.5,0 "/>
</g></g><g transform="translate(342,72) scale(0.036,0.036)"><g transform="" style="fill: rgb(0, 0, 0);">
<path d="M461.5,288.5c0-42.907,0-123.188,0-171.55c0-23.857,0-39.95,0-39.95V59.5V30V0h-423v30v29.5V77c0,0,0,16.216,0,39.95
	c0,51.332,0,137.84,0,171.55C38.5,405.301,133.2,500,250,500C366.809,500,461.5,405.301,461.5,288.5z"/>
</g></g><g transform="translate(360,72) scale(0.036,0.036)"><g transform="" style="fill: rgb(0, 0, 0);">
<path d="M38.5,211.5c0,42.907,0,123.188,0,171.55c0,23.857,0,39.95,0,39.95v17.5V470v30h423v-30v-29.5V423c0,0,0-16.216,0-39.95
	c0-51.332,0-137.84,0-171.55C461.5,94.699,366.8,0,250,0C133.191,0,38.5,94.699,38.5,211.5z"/>
</g></g><g transform="translate(180,90) scale(0.036,0.036)"><g transform="" style="fill: rgb(0, 0, 0);">
<path d="M38.5,211.5c0,42.907,0,123.188,0,171.55c0,23.857,0,39.95,0,39.95v17.5V470v30h423v-30v-29.5V423c0,0,0-16.216,0-39.95
	c0-51.332,0-137.84,0-171.55C461.5,94.699,366.8,0,250,0C133.191,0,38.5,94.699,38.5,211.5z"/>
</g></g><g transform="translate(216,90) scale(0.036,0.036)"><g transform="" style="fill: rgb(0, 0, 0);">
<polygon points="38.5,250 38.5,500 461.5,500 461.5,250 461.5,0 38.5,0 "/>
</g></g><g transform="translate(270,90) scale(0.036,0.036)"><g transform="" style="fill: rgb(0, 0, 0);">
<path d="M250,38.5c116.813,0,211.5,94.693,211.5,211.5c0,116.813-94.687,211.5-211.5,211.5c-116.807,0-211.5-94.687-211.5-211.5
	C38.5,133.193,133.193,38.5,250,38.5z"/>
</g></g><g transform="translate(306,90) scale(0.036,0.036)"><g transform="" style="fill: rgb(0, 0, 0);">
<path d="M461.5,288.5c0-42.907,0-123.188,0-171.55c0-23.857,0-39.95,0-39.95V59.5V30V0h-423v30v29.5V77c0,0,0,16.216,0,39.95
	c0,51.332,0,137.84,0,171.55C38.5,405.301,133.2,500,250,500C366.809,500,461.5,405.301,461.5,288.5z"/>
</g></g><g transform="translate(324,90) scale(0.036,0.036)"><g transform="" style="fill: rgb(0, 0, 0);">
<path d="M38.5,211.5c0,42.907,0,123.188,0,171.55c0,23.857,0,39.95,0,39.95v17.5V470v30h423v-30v-29.5V423c0,0,0-16.216,0-39.95
	c0-51.332,0-137.84,0-171.55C461.5,94.699,366.8,0,250,0C133.191,0,38.5,94.699,38.5,211.5z"/>
</g></g><g transform="translate(360,90) scale(0.036,0.036)"><g transform="" style="fill: rgb(0, 0, 0);">
<polygon points="38.5,250 38.5,500 461.5,500 461.5,250 461.5,0 38.5,0 "/>
</g></g><g transform="translate(144,108) scale(0.036,0.036)"><g transform="" style="fill: rgb(0, 0, 0);">
<path d="M250,38.5c116.813,0,211.5,94.693,211.5,211.5c0,116.813-94.687,211.5-211.5,211.5c-116.807,0-211.5-94.687-211.5-211.5
	C38.5,133.193,133.193,38.5,250,38.5z"/>
</g></g><g transform="translate(180,108) scale(0.036,0.036)"><g transform="" style="fill: rgb(0, 0, 0);">
<path d="M461.5,288.5c0-42.907,0-123.188,0-171.55c0-23.857,0-39.95,0-39.95V59.5V30V0h-423v30v29.5V77c0,0,0,16.216,0,39.95
	c0,51.332,0,137.84,0,171.55C38.5,405.301,133.2,500,250,500C366.809,500,461.5,405.301,461.5,288.5z"/>
</g></g><g transform="translate(216,108) scale(0.036,0.036)"><g transform="" style="fill: rgb(0, 0, 0);">
<path d="M461.5,288.5c0-42.907,0-123.188,0-171.55c0-23.857,0-39.95,0-39.95V59.5V30V0h-423v30v29.5V77c0,0,0,16.216,0,39.95
	c0,51.332,0,137.84,0,171.55C38.5,405.301,133.2,500,250,500C366.809,500,461.5,405.301,461.5,288.5z"/>
</g></g><g transform="translate(252,108) scale(0.036,0.036)"><g transform="" style="fill: rgb(0, 0, 0);">
<path d="M250,38.5c116.813,0,211.5,94.693,211.5,211.5c0,116.813-94.687,211.5-211.5,211.5c-116.807,0-211.5-94.687-211.5-211.5
	C38.5,133.193,133.193,38.5,250,38.5z"/>
</g></g><g transform="translate(288,108) scale(0.036,0.036)"><g transform="" style="fill: rgb(0, 0, 0);">
<path d="M38.5,211.5c0,42.907,0,123.188,0,171.55c0,23.857,0,39.95,0,39.95v17.5V470v30h423v-30v-29.5V423c0,0,0-16.216,0-39.95
	c0-51.332,0-137.84,0-171.55C461.5,94.699,366.8,0,250,0C133.191,0,38.5,94.699,38.5,211.5z"/>
</g></g><g transform="translate(324,108) scale(0.036,0.036)"><g transform="" style="fill: rgb(0, 0, 0);">
<path d="M461.5,288.5c0-42.907,0-123.188,0-171.55c0-23.857,0-39.95,0-39.95V59.5V30V0h-423v30v29.5V77c0,0,0,16.216,0,39.95
	c0,51.332,0,137.84,0,171.55C38.5,405.301,133.2,500,250,500C366.809,500,461.5,405.301,461.5,288.5z"/>
</g></g><g transform="translate(360,108) scale(0.036,0.036)"><g transform="" style="fill: rgb(0, 0, 0);">
<polygon points="38.5,250 38.5,500 461.5,500 461.5,250 461.5,0 38.5,0 "/>
</g></g><g transform="translate(198,126) scale(0.036,0.036)"><g transform="" style="fill: rgb(0, 0, 0);">
<path d="M250,38.5c116.813,0,211.5,94.693,211.5,211.5c0,116.813-94.687,211.5-211.5,211.5c-116.807,0-211.5-94.687-211.5-211.5
	C38.5,133.193,133.193,38.5,250,38.5z"/>
</g></g><g transform="translate(234,126) scale(0.036,0.036)"><g transform="" style="fill: rgb(0, 0, 0);">
<path d="M38.5,211.5c0,42.907,0,123.188,0,171.55c0,23.857,0,39.95,0,39.95v17.5V470v30h423v-30v-29.5V423c0,0,0-16.216,0-39.95
	c0-51.332,0-137.84,0-171.55C461.5,94.699,366.8,0,250,0C133.191,0,38.5,94.699,38.5,211.5z"/>
</g></g><g transform="translate(270,126) scale(0.036,0.036)"><g transform="" style="fill: rgb(0, 0, 0);">
<path d="M38.5,211.5c0,42.907,0,123.188,0,171.55c0,23.857,0,39.95,0,39.95v17.5V470v30h423v-30v-29.5V423c0,0,0-16.216,0-39.95
	c0-51.332,0-137.84,0-171.55C461.5,94.699,366.8,0,250,0C133.191,0,38.5,94.699,38.5,211.5z"/>
</g></g><g transform="translate(288,126) scale(0.036,0.036)"><g transform="" style="fill: rgb(0, 0, 0);">
<path d="M461.5,288.5c0-42.907,0-123.188,0-171.55c0-23.857,0-39.95,0-39.95V59.5V30V0h-423v30v29.5V77c0,0,0,16.216,0,39.95
	c0,51.332,0,137.84,0,171.55C38.5,405.301,133.2,500,250,500C366.809,500,461.5,405.301,461.5,288.5z"/>
</g></g><g transform="translate(342,126) scale(0.036,0.036)"><g transform="" style="fill: rgb(0, 0, 0);">
<path d="M38.5,211.5c0,42.907,0,123.188,0,171.55c0,23.857,0,39.95,0,39.95v17.5V470v30h423v-30v-29.5V423c0,0,0-16.216,0-39.95
	c0-51.332,0-137.84,0-171.55C461.5,94.699,366.8,0,250,0C133.191,0,38.5,94.699,38.5,211.5z"/>
</g></g><g transform="translate(360,126) scale(0.036,0.036)"><g transform="" style="fill: rgb(0, 0, 0);">
<polygon points="38.5,250 38.5,500 461.5,500 461.5,250 461.5,0 38.5,0 "/>
</g></g><g transform="translate(54,144) scale(0.036,0.036)"><g transform="" style="fill: rgb(0, 0, 0);">
<path d="M38.5,211.5c0,42.907,0,123.188,0,171.55c0,23.857,0,39.95,0,39.95v17.5V470v30h423v-30v-29.5V423c0,0,0-16.216,0-39.95
	c0-51.332,0-137.84,0-171.55C461.5,94.699,366.8,0,250,0C133.191,0,38.5,94.699,38.5,211.5z"/>
</g></g><g transform="translate(72,144) scale(0.036,0.036)"><g transform="" style="fill: rgb(0, 0, 0);">
<path d="M250,38.5c116.813,0,211.5,94.693,211.5,211.5c0,116.813-94.687,211.5-211.5,211.5c-116.807,0-211.5-94.687-211.5-211.5
	C38.5,133.193,133.193,38.5,250,38.5z"/>
</g></g><g transform="translate(108,144) scale(0.036,0.036)"><g transform="" style="fill: rgb(0, 0, 0);">
<path d="M250,38.5c116.813,0,211.5,94.693,211.5,211.5c0,116.813-94.687,211.5-211.5,211.5c-116.807,0-211.5-94.687-211.5-211.5
	C38.5,133.193,133.193,38.5,250,38.5z"/>
</g></g><g transform="translate(126,144) scale(0.036,0.036)"><g transform="" style="fill: rgb(0, 0, 0);">
<path d="M38.5,211.5c0,42.907,0,123.188,0,171.55c0,23.857,0,39.95,0,39.95v17.5V470v30h423v-30v-29.5V423c0,0,0-16.216,0-39.95
	c0-51.332,0-137.84,0-171.55C461.5,94.699,366.8,0,250,0C133.191,0,38.5,94.699,38.5,211.5z"/>
</g></g><g transform="translate(162,144) scale(0.036,0.036)"><g transform="" style="fill: rgb(0, 0, 0);">
<path d="M38.5,211.5c0,42.907,0,123.188,0,171.55c0,23.857,0,39.95,0,39.95v17.5V470v30h423v-30v-29.5V423c0,0,0-16.216,0-39.95
	c0-51.332,0-137.84,0-171.55C461.5,94.699,366.8,0,250,0C133.191,0,38.5,94.699,38.5,211.5z"/>
</g></g><g transform="translate(180,144) scale(0.036,0.036)"><g transform="" style="fill: rgb(0, 0, 0);">
<path d="M250,38.5c116.813,0,211.5,94.693,211.5,211.5c0,116.813-94.687,211.5-211.5,211.5c-116.807,0-211.5-94.687-211.5-211.5
	C38.5,133.193,133.193,38.5,250,38.5z"/>
</g></g><g transform="translate(216,144) scale(0.036,0.036)"><g transform="" style="fill: rgb(0, 0, 0);">
<path d="M38.5,211.5c0,42.907,0,123.188,0,171.55c0,23.857,0,39.95,0,39.95v17.5V470v30h423v-30v-29.5V423c0,0,0-16.216,0-39.95
	c0-51.332,0-137.84,0-171.55C461.5,94.699,366.8,0,250,0C133.191,0,38.5,94.699,38.5,211.5z"/>
</g></g><g transform="translate(234,144) scale(0.036,0.036)"><g transform="" style="fill: rgb(0, 0, 0);">
<polygon points="38.5,250 38.5,500 461.5,500 461.5,250 461.5,0 38.5,0 "/>
</g></g><g transform="translate(252,144) scale(0.036,0.036)"><g transform="" style="fill: rgb(0, 0, 0);">
<path d="M38.5,211.5c0,42.907,0,123.188,0,171.55c0,23.857,0,39.95,0,39.95v17.5V470v30h423v-30v-29.5V423c0,0,0-16.216,0-39.95
	c0-51.332,0-137.84,0-171.55C461.5,94.699,366.8,0,250,0C133.191,0,38.5,94.699,38.5,211.5z"/>
</g></g><g transform="translate(270,144) scale(0.036,0.036)"><g transform="" style="fill: rgb(0, 0, 0);">
<polygon points="38.5,250 38.5,500 461.5,500 461.5,250 461.5,0 38.5,0 "/>
</g></g><g transform="translate(324,144) scale(0.036,0.036)"><g transform="" style="fill: rgb(0, 0, 0);">
<path d="M250,38.5c116.813,0,211.5,94.693,211.5,211.5c0,116.813-94.687,211.5-211.5,211.5c-116.807,0-211.5-94.687-211.5-211.5
	C38.5,133.193,133.193,38.5,250,38.5z"/>
</g></g><g transform="translate(342,144) scale(0.036,0.036)"><g transform="" style="fill: rgb(0, 0, 0);">
<path d="M461.5,288.5c0-42.907,0-123.188,0-171.55c0-23.857,0-39.95,0-39.95V59.5V30V0h-423v30v29.5V77c0,0,0,16.216,0,39.95
	c0,51.332,0,137.84,0,171.55C38.5,405.301,133.2,500,250,500C366.809,500,461.5,405.301,461.5,288.5z"/>
</g></g><g transform="translate(360,144) scale(0.036,0.036)"><g transform="" style="fill: rgb(0, 0, 0);">
<polygon points="38.5,250 38.5,500 461.5,500 461.5,250 461.5,0 38.5,0 "/>
</g></g><g transform="translate(450,144) scale(0.036,0.036)"><g transform="" style="fill: rgb(0, 0, 0);">
<path d="M38.5,211.5c0,42.907,0,123.188,0,171.55c0,23.857,0,39.95,0,39.95v17.5V470v30h423v-30v-29.5V423c0,0,0-16.216,0-39.95
	c0-51.332,0-137.84,0-171.55C461.5,94.699,366.8,0,250,0C133.191,0,38.5,94.699,38.5,211.5z"/>
</g></g><g transform="translate(468,144) scale(0.036,0.036)"><g transform="" style="fill: rgb(0, 0, 0);">
<path d="M38.5,211.5c0,42.907,0,123.188,0,171.55c0,23.857,0,39.95,0,39.95v17.5V470v30h423v-30v-29.5V423c0,0,0-16.216,0-39.95
	c0-51.332,0-137.84,0-171.55C461.5,94.699,366.8,0,250,0C133.191,0,38.5,94.699,38.5,211.5z"/>
</g></g><g transform="translate(0,162) scale(0.036,0.036)"><g transform="" style="fill: rgb(0, 0, 0);">
<path d="M38.5,211.5c0,42.907,0,123.188,0,171.55c0,23.857,0,39.95,0,39.95v17.5V470v30h423v-30v-29.5V423c0,0,0-16.216,0-39.95
	c0-51.332,0-137.84,0-171.55C461.5,94.699,366.8,0,250,0C133.191,0,38.5,94.699,38.5,211.5z"/>
</g></g><g transform="translate(18,162) scale(0.036,0.036)"><g transform="" style="fill: rgb(0, 0, 0);">
<path d="M250,38.5c116.813,0,211.5,94.693,211.5,211.5c0,116.813-94.687,211.5-211.5,211.5c-116.807,0-211.5-94.687-211.5-211.5
	C38.5,133.193,133.193,38.5,250,38.5z"/>
</g></g><g transform="translate(54,162) scale(0.036,0.036)"><g transform="" style="fill: rgb(0, 0, 0);">
<path d="M461.5,288.5c0-42.907,0-123.188,0-171.55c0-23.857,0-39.95,0-39.95V59.5V30V0h-423v30v29.5V77c0,0,0,16.216,0,39.95
	c0,51.332,0,137.84,0,171.55C38.5,405.301,133.2,500,250,500C366.809,500,461.5,405.301,461.5,288.5z"/>
</g></g><g transform="translate(126,162) scale(0.036,0.036)"><g transform="" style="fill: rgb(0, 0, 0);">
<path d="M461.5,288.5c0-42.907,0-123.188,0-171.55c0-23.857,0-39.95,0-39.95V59.5V30V0h-423v30v29.5V77c0,0,0,16.216,0,39.95
	c0,51.332,0,137.84,0,171.55C38.5,405.301,133.2,500,250,500C366.809,500,461.5,405.301,461.5,288.5z"/>
</g></g><g transform="translate(162,162) scale(0.036,0.036)"><g transform="" style="fill: rgb(0, 0, 0);">
<polygon points="38.5,250 38.5,500 461.5,500 461.5,250 461.5,0 38.5,0 "/>
</g></g><g transform="translate(198,162) scale(0.036,0.036)"><g transform="" style="fill: rgb(0, 0, 0);">
<path d="M250,38.5c116.813,0,211.5,94.693,211.5,211.5c0,116.813-94.687,211.5-211.5,211.5c-116.807,0-211.5-94.687-211.5-211.5
	C38.5,133.193,133.193,38.5,250,38.5z"/>
</g></g><g transform="translate(216,162) scale(0.036,0.036)"><g transform="" style="fill: rgb(0, 0, 0);">
<path d="M461.5,288.5c0-42.907,0-123.188,0-171.55c0-23.857,0-39.95,0-39.95V59.5V30V0h-423v30v29.5V77c0,0,0,16.216,0,39.95
	c0,51.332,0,137.84,0,171.55C38.5,405.301,133.2,500,250,500C366.809,500,461.5,405.301,461.5,288.5z"/>
</g></g><g transform="translate(234,162) scale(0.036,0.036)"><g transform="" style="fill: rgb(0, 0, 0);">
<path d="M461.5,288.5c0-42.907,0-123.188,0-171.55c0-23.857,0-39.95,0-39.95V59.5V30V0h-423v30v29.5V77c0,0,0,16.216,0,39.95
	c0,51.332,0,137.84,0,171.55C38.5,405.301,133.2,500,250,500C366.809,500,461.5,405.301,461.5,288.5z"/>
</g></g><g transform="translate(252,162) scale(0.036,0.036)"><g transform="" style="fill: rgb(0, 0, 0);">
<path d="M461.5,288.5c0-42.907,0-123.188,0-171.55c0-23.857,0-39.95,0-39.95V59.5V30V0h-423v30v29.5V77c0,0,0,16.216,0,39.95
	c0,51.332,0,137.84,0,171.55C38.5,405.301,133.2,500,250,500C366.809,500,461.5,405.301,461.5,288.5z"/>
</g></g><g transform="translate(270,162) scale(0.036,0.036)"><g transform="" style="fill: rgb(0, 0, 0);">
<path d="M461.5,288.5c0-42.907,0-123.188,0-171.55c0-23.857,0-39.95,0-39.95V59.5V30V0h-423v30v29.5V77c0,0,0,16.216,0,39.95
	c0,51.332,0,137.84,0,171.55C38.5,405.301,133.2,500,250,500C366.809,500,461.5,405.301,461.5,288.5z"/>
</g></g><g transform="translate(288,162) scale(0.036,0.036)"><g transform="" style="fill: rgb(0, 0, 0);">
<path d="M250,38.5c116.813,0,211.5,94.693,211.5,211.5c0,116.813-94.687,211.5-211.5,211.5c-116.807,0-211.5-94.687-211.5-211.5
	C38.5,133.193,133.193,38.5,250,38.5z"/>
</g></g><g transform="translate(306,162) scale(0.036,0.036)"><g transform="" style="fill: rgb(0, 0, 0);">
<path d="M250,38.5c116.813,0,211.5,94.693,211.5,211.5c0,116.813-94.687,211.5-211.5,211.5c-116.807,0-211.5-94.687-211.5-211.5
	C38.5,133.193,133.193,38.5,250,38.5z"/>
</g></g><g transform="translate(360,162) scale(0.036,0.036)"><g transform="" style="fill: rgb(0, 0, 0);">
<path d="M461.5,288.5c0-42.907,0-123.188,0-171.55c0-23.857,0-39.95,0-39.95V59.5V30V0h-423v30v29.5V77c0,0,0,16.216,0,39.95
	c0,51.332,0,137.84,0,171.55C38.5,405.301,133.2,500,250,500C366.809,500,461.5,405.301,461.5,288.5z"/>
</g></g><g transform="translate(378,162) scale(0.036,0.036)"><g transform="" style="fill: rgb(0, 0, 0);">
<path d="M38.5,211.5c0,42.907,0,123.188,0,171.55c0,23.857,0,39.95,0,39.95v17.5V470v30h423v-30v-29.5V423c0,0,0-16.216,0-39.95
	c0-51.332,0-137.84,0-171.55C461.5,94.699,366.8,0,250,0C133.191,0,38.5,94.699,38.5,211.5z"/>
</g></g><g transform="translate(396,162) scale(0.036,0.036)"><g transform="" style="fill: rgb(0, 0, 0);">
<path d="M250,38.5c116.813,0,211.5,94.693,211.5,211.5c0,116.813-94.687,211.5-211.5,211.5c-116.807,0-211.5-94.687-211.5-211.5
	C38.5,133.193,133.193,38.5,250,38.5z"/>
</g></g><g transform="translate(432,162) scale(0.036,0.036)"><g transform="" style="fill: rgb(0, 0, 0);">
<path d="M38.5,211.5c0,42.907,0,123.188,0,171.55c0,23.857,0,39.95,0,39.95v17.5V470v30h423v-30v-29.5V423c0,0,0-16.216,0-39.95
	c0-51.332,0-137.84,0-171.55C461.5,94.699,366.8,0,250,0C133.191,0,38.5,94.699,38.5,211.5z"/>
</g></g><g transform="translate(450,162) scale(0.036,0.036)"><g transform="" style="fill: rgb(0, 0, 0);">
<polygon points="38.5,250 38.5,500 461.5,500 461.5,250 461.5,0 38.5,0 "/>
</g></g><g transform="translate(468,162) scale(0.036,0.036)"><g transform="" style="fill: rgb(0, 0, 0);">
<path d="M461.5,288.5c0-42.907,0-123.188,0-171.55c0-23.857,0-39.95,0-39.95V59.5V30V0h-423v30v29.5V77c0,0,0,16.216,0,39.95
	c0,51.332,0,137.84,0,171.55C38.5,405.301,133.2,500,250,500C366.809,500,461.5,405.301,461.5,288.5z"/>
</g></g><g transform="translate(0,180) scale(0.036,0.036)"><g transform="" style="fill: rgb(0, 0, 0);">
<path d="M461.5,288.5c0-42.907,0-123.188,0-171.55c0-23.857,0-39.95,0-39.95V59.5V30V0h-423v30v29.5V77c0,0,0,16.216,0,39.95
	c0,51.332,0,137.84,0,171.55C38.5,405.301,133.2,500,250,500C366.809,500,461.5,405.301,461.5,288.5z"/>
</g></g><g transform="translate(36,180) scale(0.036,0.036)"><g transform="" style="fill: rgb(0, 0, 0);">
<path d="M250,38.5c116.813,0,211.5,94.693,211.5,211.5c0,116.813-94.687,211.5-211.5,211.5c-116.807,0-211.5-94.687-211.5-211.5
	C38.5,133.193,133.193,38.5,250,38.5z"/>
</g></g><g transform="translate(90,180) scale(0.036,0.036)"><g transform="" style="fill: rgb(0, 0, 0);">
<path d="M38.5,211.5c0,42.907,0,123.188,0,171.55c0,23.857,0,39.95,0,39.95v17.5V470v30h423v-30v-29.5V423c0,0,0-16.216,0-39.95
	c0-51.332,0-137.84,0-171.55C461.5,94.699,366.8,0,250,0C133.191,0,38.5,94.699,38.5,211.5z"/>
</g></g><g transform="translate(108,180) scale(0.036,0.036)"><g transform="" style="fill: rgb(0, 0, 0);">
<path d="M250,38.5c116.813,0,211.5,94.693,211.5,211.5c0,116.813-94.687,211.5-211.5,211.5c-116.807,0-211.5-94.687-211.5-211.5
	C38.5,133.193,133.193,38.5,250,38.5z"/>
</g></g><g transform="translate(144,180) scale(0.036,0.036)"><g transform="" style="fill: rgb(0, 0, 0);">
<path d="M250,38.5c116.813,0,211.5,94.693,211.5,211.5c0,116.813-94.687,211.5-211.5,211.5c-116.807,0-211.5-94.687-211.5-211.5
	C38.5,133.193,133.193,38.5,250,38.5z"/>
</g></g><g transform="translate(162,180) scale(0.036,0.036)"><g transform="" style="fill: rgb(0, 0, 0);">
<path d="M461.5,288.5c0-42.907,0-123.188,0-171.55c0-23.857,0-39.95,0-39.95V59.5V30V0h-423v30v29.5V77c0,0,0,16.216,0,39.95
	c0,51.332,0,137.84,0,171.55C38.5,405.301,133.2,500,250,500C366.809,500,461.5,405.301,461.5,288.5z"/>
</g></g><g transform="translate(378,180) scale(0.036,0.036)"><g transform="" style="fill: rgb(0, 0, 0);">
<polygon points="38.5,250 38.5,500 461.5,500 461.5,250 461.5,0 38.5,0 "/>
</g></g><g transform="translate(432,180) scale(0.036,0.036)"><g transform="" style="fill: rgb(0, 0, 0);">
<polygon points="38.5,250 38.5,500 461.5,500 461.5,250 461.5,0 38.5,0 "/>
</g></g><g transform="translate(450,180) scale(0.036,0.036)"><g transform="" style="fill: rgb(0, 0, 0);">
<path d="M461.5,288.5c0-42.907,0-123.188,0-171.55c0-23.857,0-39.95,0-39.95V59.5V30V0h-423v30v29.5V77c0,0,0,16.216,0,39.95
	c0,51.332,0,137.84,0,171.55C38.5,405.301,133.2,500,250,500C366.809,500,461.5,405.301,461.5,288.5z"/>
</g></g><g transform="translate(54,198) scale(0.036,0.036)"><g transform="" style="fill: rgb(0, 0, 0);">
<path d="M38.5,211.5c0,42.907,0,123.188,0,171.55c0,23.857,0,39.95,0,39.95v17.5V470v30h423v-30v-29.5V423c0,0,0-16.216,0-39.95
	c0-51.332,0-137.84,0-171.55C461.5,94.699,366.8,0,250,0C133.191,0,38.5,94.699,38.5,211.5z"/>
</g></g><g transform="translate(90,198) scale(0.036,0.036)"><g transform="" style="fill: rgb(0, 0, 0);">
<polygon points="38.5,250 38.5,500 461.5,500 461.5,250 461.5,0 38.5,0 "/>
</g></g><g transform="translate(126,198) scale(0.036,0.036)"><g transform="" style="fill: rgb(0, 0, 0);">
<path d="M250,38.5c116.813,0,211.5,94.693,211.5,211.5c0,116.813-94.687,211.5-211.5,211.5c-116.807,0-211.5-94.687-211.5-211.5
	C38.5,133.193,133.193,38.5,250,38.5z"/>
</g></g><g transform="translate(378,198) scale(0.036,0.036)"><g transform="" style="fill: rgb(0, 0, 0);">
<polygon points="38.5,250 38.5,500 461.5,500 461.5,250 461.5,0 38.5,0 "/>
</g></g><g transform="translate(414,198) scale(0.036,0.036)"><g transform="" style="fill: rgb(0, 0, 0);">
<path d="M250,38.5c116.813,0,211.5,94.693,211.5,211.5c0,116.813-94.687,211.5-211.5,211.5c-116.807,0-211.5-94.687-211.5-211.5
	C38.5,133.193,133.193,38.5,250,38.5z"/>
</g></g><g transform="translate(432,198) scale(0.036,0.036)"><g transform="" style="fill: rgb(0, 0, 0);">
<path d="M461.5,288.5c0-42.907,0-123.188,0-171.55c0-23.857,0-39.95,0-39.95V59.5V30V0h-423v30v29.5V77c0,0,0,16.216,0,39.95
	c0,51.332,0,137.84,0,171.55C38.5,405.301,133.2,500,250,500C366.809,500,461.5,405.301,461.5,288.5z"/>
</g></g><g transform="translate(504,198) scale(0.036,0.036)"><g transform="" style="fill: rgb(0, 0, 0);">
<path d="M38.5,211.5c0,42.907,0,123.188,0,171.55c0,23.857,0,39.95,0,39.95v17.5V470v30h423v-30v-29.5V423c0,0,0-16.216,0-39.95
	c0-51.332,0-137.84,0-171.55C461.5,94.699,366.8,0,250,0C133.191,0,38.5,94.699,38.5,211.5z"/>
</g></g><g transform="translate(0,216) scale(0.036,0.036)"><g transform="" style="fill: rgb(0, 0, 0);">
<path d="M250,38.5c116.813,0,211.5,94.693,211.5,211.5c0,116.813-94.687,211.5-211.5,211.5c-116.807,0-211.5-94.687-211.5-211.5
	C38.5,133.193,133.193,38.5,250,38.5z"/>
</g></g><g transform="translate(18,216) scale(0.036,0.036)"><g transform="" style="fill: rgb(0, 0, 0);">
<path d="M250,38.5c116.813,0,211.5,94.693,211.5,211.5c0,116.813-94.687,211.5-211.5,211.5c-116.807,0-211.5-94.687-211.5-211.5
	C38.5,133.193,133.193,38.5,250,38.5z"/>
</g></g><g transform="translate(54,216) scale(0.036,0.036)"><g transform="" style="fill: rgb(0, 0, 0);">
<polygon points="38.5,250 38.5,500 461.5,500 461.5,250 461.5,0 38.5,0 "/>
</g></g><g transform="translate(72,216) scale(0.036,0.036)"><g transform="" style="fill: rgb(0, 0, 0);">
<path d="M250,38.5c116.813,0,211.5,94.693,211.5,211.5c0,116.813-94.687,211.5-211.5,211.5c-116.807,0-211.5-94.687-211.5-211.5
	C38.5,133.193,133.193,38.5,250,38.5z"/>
</g></g><g transform="translate(90,216) scale(0.036,0.036)"><g transform="" style="fill: rgb(0, 0, 0);">
<polygon points="38.5,250 38.5,500 461.5,500 461.5,250 461.5,0 38.5,0 "/>
</g></g><g transform="translate(108,216) scale(0.036,0.036)"><g transform="" style="fill: rgb(0, 0, 0);">
<path d="M250,38.5c116.813,0,211.5,94.693,211.5,211.5c0,116.813-94.687,211.5-211.5,211.5c-116.807,0-211.5-94.687-211.5-211.5
	C38.5,133.193,133.193,38.5,250,38.5z"/>
</g></g><g transform="translate(144,216) scale(0.036,0.036)"><g transform="" style="fill: rgb(0, 0, 0);">
<path d="M250,38.5c116.813,0,211.5,94.693,211.5,211.5c0,116.813-94.687,211.5-211.5,211.5c-116.807,0-211.5-94.687-211.5-211.5
	C38.5,133.193,133.193,38.5,250,38.5z"/>
</g></g><g transform="translate(162,216) scale(0.036,0.036)"><g transform="" style="fill: rgb(0, 0, 0);">
<path d="M38.5,211.5c0,42.907,0,123.188,0,171.55c0,23.857,0,39.95,0,39.95v17.5V470v30h423v-30v-29.5V423c0,0,0-16.216,0-39.95
	c0-51.332,0-137.84,0-171.55C461.5,94.699,366.8,0,250,0C133.191,0,38.5,94.699,38.5,211.5z"/>
</g></g><g transform="translate(342,216) scale(0.036,0.036)"><g transform="" style="fill: rgb(0, 0, 0);">
<path d="M250,38.5c116.813,0,211.5,94.693,211.5,211.5c0,116.813-94.687,211.5-211.5,211.5c-116.807,0-211.5-94.687-211.5-211.5
	C38.5,133.193,133.193,38.5,250,38.5z"/>
</g></g><g transform="translate(378,216) scale(0.036,0.036)"><g transform="" style="fill: rgb(0, 0, 0);">
<polygon points="38.5,250 38.5,500 461.5,500 461.5,250 461.5,0 38.5,0 "/>
</g></g><g transform="translate(396,216) scale(0.036,0.036)"><g transform="" style="fill: rgb(0, 0, 0);">
<path d="M38.5,211.5c0,42.907,0,123.188,0,171.55c0,23.857,0,39.95,0,39.95v17.5V470v30h423v-30v-29.5V423c0,0,0-16.216,0-39.95
	c0-51.332,0-137.84,0-171.55C461.5,94.699,366.8,0,250,0C133.191,0,38.5,94.699,38.5,211.5z"/>
</g></g><g transform="translate(504,216) scale(0.036,0.036)"><g transform="" style="fill: rgb(0, 0, 0);">
<polygon points="38.5,250 38.5,500 461.5,500 461.5,250 461.5,0 38.5,0 "/>
</g></g><g transform="translate(54,234) scale(0.036,0.036)"><g transform="" style="fill: rgb(0, 0, 0);">
<polygon points="38.5,250 38.5,500 461.5,500 461.5,250 461.5,0 38.5,0 "/>
</g></g><g transform="translate(90,234) scale(0.036,0.036)"><g transform="" style="fill: rgb(0, 0, 0);">
<polygon points="38.5,250 38.5,500 461.5,500 461.5,250 461.5,0 38.5,0 "/>
</g></g><g transform="translate(162,234) scale(0.036,0.036)"><g transform="" style="fill: rgb(0, 0, 0);">
<path d="M461.5,288.5c0-42.907,0-123.188,0-171.55c0-23.857,0-39.95,0-39.95V59.5V30V0h-423v30v29.5V77c0,0,0,16.216,0,39.95
	c0,51.332,0,137.84,0,171.55C38.5,405.301,133.2,500,250,500C366.809,500,461.5,405.301,461.5,288.5z"/>
</g></g><g transform="translate(360,234) scale(0.036,0.036)"><g transform="" style="fill: rgb(0, 0, 0);">
<path d="M38.5,211.5c0,42.907,0,123.188,0,171.55c0,23.857,0,39.95,0,39.95v17.5V470v30h423v-30v-29.5V423c0,0,0-16.216,0-39.95
	c0-51.332,0-137.84,0-171.55C461.5,94.699,366.8,0,250,0C133.191,0,38.5,94.699,38.5,211.5z"/>
</g></g><g transform="translate(378,234) scale(0.036,0.036)"><g transform="" style="fill: rgb(0, 0, 0);">
<path d="M461.5,288.5c0-42.907,0-123.188,0-171.55c0-23.857,0-39.95,0-39.95V59.5V30V0h-423v30v29.5V77c0,0,0,16.216,0,39.95
	c0,51.332,0,137.84,0,171.55C38.5,405.301,133.2,500,250,500C366.809,500,461.5,405.301,461.5,288.5z"/>
</g></g><g transform="translate(396,234) scale(0.036,0.036)"><g transform="" style="fill: rgb(0, 0, 0);">
<path d="M461.5,288.5c0-42.907,0-123.188,0-171.55c0-23.857,0-39.95,0-39.95V59.5V30V0h-423v30v29.5V77c0,0,0,16.216,0,39.95
	c0,51.332,0,137.84,0,171.55C38.5,405.301,133.2,500,250,500C366.809,500,461.5,405.301,461.5,288.5z"/>
</g></g><g transform="translate(432,234) scale(0.036,0.036)"><g transform="" style="fill: rgb(0, 0, 0);">
<path d="M250,38.5c116.813,0,211.5,94.693,211.5,211.5c0,116.813-94.687,211.5-211.5,211.5c-116.807,0-211.5-94.687-211.5-211.5
	C38.5,133.193,133.193,38.5,250,38.5z"/>
</g></g><g transform="translate(468,234) scale(0.036,0.036)"><g transform="" style="fill: rgb(0, 0, 0);">
<path d="M250,38.5c116.813,0,211.5,94.693,211.5,211.5c0,116.813-94.687,211.5-211.5,211.5c-116.807,0-211.5-94.687-211.5-211.5
	C38.5,133.193,133.193,38.5,250,38.5z"/>
</g></g><g transform="translate(486,234) scale(0.036,0.036)"><g transform="" style="fill: rgb(0, 0, 0);">
<path d="M38.5,211.5c0,42.907,0,123.188,0,171.55c0,23.857,0,39.95,0,39.95v17.5V470v30h423v-30v-29.5V423c0,0,0-16.216,0-39.95
	c0-51.332,0-137.84,0-171.55C461.5,94.699,366.8,0,250,0C133.191,0,38.5,94.699,38.5,211.5z"/>
</g></g><g transform="translate(504,234) scale(0.036,0.036)"><g transform="" style="fill: rgb(0, 0, 0);">
<polygon points="38.5,250 38.5,500 461.5,500 461.5,250 461.5,0 38.5,0 "/>
</g></g><g transform="translate(18,252) scale(0.036,0.036)"><g transform="" style="fill: rgb(0, 0, 0);">
<path d="M38.5,211.5c0,42.907,0,123.188,0,171.55c0,23.857,0,39.95,0,39.95v17.5V470v30h423v-30v-29.5V423c0,0,0-16.216,0-39.95
	c0-51.332,0-137.84,0-171.55C461.5,94.699,366.8,0,250,0C133.191,0,38.5,94.699,38.5,211.5z"/>
</g></g><g transform="translate(54,252) scale(0.036,0.036)"><g transform="" style="fill: rgb(0, 0, 0);">
<polygon points="38.5,250 38.5,500 461.5,500 461.5,250 461.5,0 38.5,0 "/>
</g></g><g transform="translate(72,252) scale(0.036,0.036)"><g transform="" style="fill: rgb(0, 0, 0);">
<path d="M38.5,211.5c0,42.907,0,123.188,0,171.55c0,23.857,0,39.95,0,39.95v17.5V470v30h423v-30v-29.5V423c0,0,0-16.216,0-39.95
	c0-51.332,0-137.84,0-171.55C461.5,94.699,366.8,0,250,0C133.191,0,38.5,94.699,38.5,211.5z"/>
</g></g><g transform="translate(90,252) scale(0.036,0.036)"><g transform="" style="fill: rgb(0, 0, 0);">
<path d="M461.5,288.5c0-42.907,0-123.188,0-171.55c0-23.857,0-39.95,0-39.95V59.5V30V0h-423v30v29.5V77c0,0,0,16.216,0,39.95
	c0,51.332,0,137.84,0,171.55C38.5,405.301,133.2,500,250,500C366.809,500,461.5,405.301,461.5,288.5z"/>
</g></g><g transform="translate(108,252) scale(0.036,0.036)"><g transform="" style="fill: rgb(0, 0, 0);">
<path d="M250,38.5c116.813,0,211.5,94.693,211.5,211.5c0,116.813-94.687,211.5-211.5,211.5c-116.807,0-211.5-94.687-211.5-211.5
	C38.5,133.193,133.193,38.5,250,38.5z"/>
</g></g><g transform="translate(144,252) scale(0.036,0.036)"><g transform="" style="fill: rgb(0, 0, 0);">
<path d="M250,38.5c116.813,0,211.5,94.693,211.5,211.5c0,116.813-94.687,211.5-211.5,211.5c-116.807,0-211.5-94.687-211.5-211.5
	C38.5,133.193,133.193,38.5,250,38.5z"/>
</g></g><g transform="translate(342,252) scale(0.036,0.036)"><g transform="" style="fill: rgb(0, 0, 0);">
<path d="M250,38.5c116.813,0,211.5,94.693,211.5,211.5c0,116.813-94.687,211.5-211.5,211.5c-116.807,0-211.5-94.687-211.5-211.5
	C38.5,133.193,133.193,38.5,250,38.5z"/>
</g></g><g transform="translate(360,252) scale(0.036,0.036)"><g transform="" style="fill: rgb(0, 0, 0);">
<path d="M461.5,288.5c0-42.907,0-123.188,0-171.55c0-23.857,0-39.95,0-39.95V59.5V30V0h-423v30v29.5V77c0,0,0,16.216,0,39.95
	c0,51.332,0,137.84,0,171.55C38.5,405.301,133.2,500,250,500C366.809,500,461.5,405.301,461.5,288.5z"/>
</g></g><g transform="translate(414,252) scale(0.036,0.036)"><g transform="" style="fill: rgb(0, 0, 0);">
<path d="M250,38.5c116.813,0,211.5,94.693,211.5,211.5c0,116.813-94.687,211.5-211.5,211.5c-116.807,0-211.5-94.687-211.5-211.5
	C38.5,133.193,133.193,38.5,250,38.5z"/>
</g></g><g transform="translate(486,252) scale(0.036,0.036)"><g transform="" style="fill: rgb(0, 0, 0);">
<path d="M461.5,288.5c0-42.907,0-123.188,0-171.55c0-23.857,0-39.95,0-39.95V59.5V30V0h-423v30v29.5V77c0,0,0,16.216,0,39.95
	c0,51.332,0,137.84,0,171.55C38.5,405.301,133.2,500,250,500C366.809,500,461.5,405.301,461.5,288.5z"/>
</g></g><g transform="translate(504,252) scale(0.036,0.036)"><g transform="" style="fill: rgb(0, 0, 0);">
<polygon points="38.5,250 38.5,500 461.5,500 461.5,250 461.5,0 38.5,0 "/>
</g></g><g transform="translate(18,270) scale(0.036,0.036)"><g transform="" style="fill: rgb(0, 0, 0);">
<path d="M461.5,288.5c0-42.907,0-123.188,0-171.55c0-23.857,0-39.95,0-39.95V59.5V30V0h-423v30v29.5V77c0,0,0,16.216,0,39.95
	c0,51.332,0,137.84,0,171.55C38.5,405.301,133.2,500,250,500C366.809,500,461.5,405.301,461.5,288.5z"/>
</g></g><g transform="translate(36,270) scale(0.036,0.036)"><g transform="" style="fill: rgb(0, 0, 0);">
<path d="M250,38.5c116.813,0,211.5,94.693,211.5,211.5c0,116.813-94.687,211.5-211.5,211.5c-116.807,0-211.5-94.687-211.5-211.5
	C38.5,133.193,133.193,38.5,250,38.5z"/>
</g></g><g transform="translate(54,270) scale(0.036,0.036)"><g transform="" style="fill: rgb(0, 0, 0);">
<path d="M461.5,288.5c0-42.907,0-123.188,0-171.55c0-23.857,0-39.95,0-39.95V59.5V30V0h-423v30v29.5V77c0,0,0,16.216,0,39.95
	c0,51.332,0,137.84,0,171.55C38.5,405.301,133.2,500,250,500C366.809,500,461.5,405.301,461.5,288.5z"/>
</g></g><g transform="translate(72,270) scale(0.036,0.036)"><g transform="" style="fill: rgb(0, 0, 0);">
<polygon points="38.5,250 38.5,500 461.5,500 461.5,250 461.5,0 38.5,0 "/>
</g></g><g transform="translate(126,270) scale(0.036,0.036)"><g transform="" style="fill: rgb(0, 0, 0);">
<path d="M38.5,211.5c0,42.907,0,123.188,0,171.55c0,23.857,0,39.95,0,39.95v17.5V470v30h423v-30v-29.5V423c0,0,0-16.216,0-39.95
	c0-51.332,0-137.84,0-171.55C461.5,94.699,366.8,0,250,0C133.191,0,38.5,94.699,38.5,211.5z"/>
</g></g><g transform="translate(162,270) scale(0.036,0.036)"><g transform="" style="fill: rgb(0, 0, 0);">
<path d="M38.5,211.5c0,42.907,0,123.188,0,171.55c0,23.857,0,39.95,0,39.95v17.5V470v30h423v-30v-29.5V423c0,0,0-16.216,0-39.95
	c0-51.332,0-137.84,0-171.55C461.5,94.699,366.8,0,250,0C133.191,0,38.5,94.699,38.5,211.5z"/>
</g></g><g transform="translate(450,270) scale(0.036,0.036)"><g transform="" style="fill: rgb(0, 0, 0);">
<path d="M250,38.5c116.813,0,211.5,94.693,211.5,211.5c0,116.813-94.687,211.5-211.5,211.5c-116.807,0-211.5-94.687-211.5-211.5
	C38.5,133.193,133.193,38.5,250,38.5z"/>
</g></g><g transform="translate(468,270) scale(0.036,0.036)"><g transform="" style="fill: rgb(0, 0, 0);">
<path d="M250,38.5c116.813,0,211.5,94.693,211.5,211.5c0,116.813-94.687,211.5-211.5,211.5c-116.807,0-211.5-94.687-211.5-211.5
	C38.5,133.193,133.193,38.5,250,38.5z"/>
</g></g><g transform="translate(504,270) scale(0.036,0.036)"><g transform="" style="fill: rgb(0, 0, 0);">
<path d="M461.5,288.5c0-42.907,0-123.188,0-171.55c0-23.857,0-39.95,0-39.95V59.5V30V0h-423v30v29.5V77c0,0,0,16.216,0,39.95
	c0,51.332,0,137.84,0,171.55C38.5,405.301,133.2,500,250,500C366.809,500,461.5,405.301,461.5,288.5z"/>
</g></g><g transform="translate(0,288) scale(0.036,0.036)"><g transform="" style="fill: rgb(0, 0, 0);">
<path d="M38.5,211.5c0,42.907,0,123.188,0,171.55c0,23.857,0,39.95,0,39.95v17.5V470v30h423v-30v-29.5V423c0,0,0-16.216,0-39.95
	c0-51.332,0-137.84,0-171.55C461.5,94.699,366.8,0,250,0C133.191,0,38.5,94.699,38.5,211.5z"/>
</g></g><g transform="translate(72,288) scale(0.036,0.036)"><g transform="" style="fill: rgb(0, 0, 0);">
<polygon points="38.5,250 38.5,500 461.5,500 461.5,250 461.5,0 38.5,0 "/>
</g></g><g transform="translate(108,288) scale(0.036,0.036)"><g transform="" style="fill: rgb(0, 0, 0);">
<path d="M250,38.5c116.813,0,211.5,94.693,211.5,211.5c0,116.813-94.687,211.5-211.5,211.5c-116.807,0-211.5-94.687-211.5-211.5
	C38.5,133.193,133.193,38.5,250,38.5z"/>
</g></g><g transform="translate(126,288) scale(0.036,0.036)"><g transform="" style="fill: rgb(0, 0, 0);">
<path d="M461.5,288.5c0-42.907,0-123.188,0-171.55c0-23.857,0-39.95,0-39.95V59.5V30V0h-423v30v29.5V77c0,0,0,16.216,0,39.95
	c0,51.332,0,137.84,0,171.55C38.5,405.301,133.2,500,250,500C366.809,500,461.5,405.301,461.5,288.5z"/>
</g></g><g transform="translate(162,288) scale(0.036,0.036)"><g transform="" style="fill: rgb(0, 0, 0);">
<polygon points="38.5,250 38.5,500 461.5,500 461.5,250 461.5,0 38.5,0 "/>
</g></g><g transform="translate(360,288) scale(0.036,0.036)"><g transform="" style="fill: rgb(0, 0, 0);">
<path d="M38.5,211.5c0,42.907,0,123.188,0,171.55c0,23.857,0,39.95,0,39.95v17.5V470v30h423v-30v-29.5V423c0,0,0-16.216,0-39.95
	c0-51.332,0-137.84,0-171.55C461.5,94.699,366.8,0,250,0C133.191,0,38.5,94.699,38.5,211.5z"/>
</g></g><g transform="translate(396,288) scale(0.036,0.036)"><g transform="" style="fill: rgb(0, 0, 0);">
<path d="M38.5,211.5c0,42.907,0,123.188,0,171.55c0,23.857,0,39.95,0,39.95v17.5V470v30h423v-30v-29.5V423c0,0,0-16.216,0-39.95
	c0-51.332,0-137.84,0-171.55C461.5,94.699,366.8,0,250,0C133.191,0,38.5,94.699,38.5,211.5z"/>
</g></g><g transform="translate(414,288) scale(0.036,0.036)"><g transform="" style="fill: rgb(0, 0, 0);">
<path d="M250,38.5c116.813,0,211.5,94.693,211.5,211.5c0,116.813-94.687,211.5-211.5,211.5c-116.807,0-211.5-94.687-211.5-211.5
	C38.5,133.193,133.193,38.5,250,38.5z"/>
</g></g><g transform="translate(432,288) scale(0.036,0.036)"><g transform="" style="fill: rgb(0, 0, 0);">
<path d="M250,38.5c116.813,0,211.5,94.693,211.5,211.5c0,116.813-94.687,211.5-211.5,211.5c-116.807,0-211.5-94.687-211.5-211.5
	C38.5,133.193,133.193,38.5,250,38.5z"/>
</g></g><g transform="translate(486,288) scale(0.036,0.036)"><g transform="" style="fill: rgb(0, 0, 0);">
<path d="M38.5,211.5c0,42.907,0,123.188,0,171.55c0,23.857,0,39.95,0,39.95v17.5V470v30h423v-30v-29.5V423c0,0,0-16.216,0-39.95
	c0-51.332,0-137.84,0-171.55C461.5,94.699,366.8,0,250,0C133.191,0,38.5,94.699,38.5,211.5z"/>
</g></g><g transform="translate(0,306) scale(0.036,0.036)"><g transform="" style="fill: rgb(0, 0, 0);">
<polygon points="38.5,250 38.5,500 461.5,500 461.5,250 461.5,0 38.5,0 "/>
</g></g><g transform="translate(36,306) scale(0.036,0.036)"><g transform="" style="fill: rgb(0, 0, 0);">
<path d="M38.5,211.5c0,42.907,0,123.188,0,171.55c0,23.857,0,39.95,0,39.95v17.5V470v30h423v-30v-29.5V423c0,0,0-16.216,0-39.95
	c0-51.332,0-137.84,0-171.55C461.5,94.699,366.8,0,250,0C133.191,0,38.5,94.699,38.5,211.5z"/>
</g></g><g transform="translate(72,306) scale(0.036,0.036)"><g transform="" style="fill: rgb(0, 0, 0);">
<polygon points="38.5,250 38.5,500 461.5,500 461.5,250 461.5,0 38.5,0 "/>
</g></g><g transform="translate(90,306) scale(0.036,0.036)"><g transform="" style="fill: rgb(0, 0, 0);">
<path d="M38.5,211.5c0,42.907,0,123.188,0,171.55c0,23.857,0,39.95,0,39.95v17.5V470v30h423v-30v-29.5V423c0,0,0-16.216,0-39.95
	c0-51.332,0-137.84,0-171.55C461.5,94.699,366.8,0,250,0C133.191,0,38.5,94.699,38.5,211.5z"/>
</g></g><g transform="translate(144,306) scale(0.036,0.036)"><g transform="" style="fill: rgb(0, 0, 0);">
<path d="M38.5,211.5c0,42.907,0,123.188,0,171.55c0,23.857,0,39.95,0,39.95v17.5V470v30h423v-30v-29.5V423c0,0,0-16.216,0-39.95
	c0-51.332,0-137.84,0-171.55C461.5,94.699,366.8,0,250,0C133.191,0,38.5,94.699,38.5,211.5z"/>
</g></g><g transform="translate(162,306) scale(0.036,0.036)"><g transform="" style="fill: rgb(0, 0, 0);">
<polygon points="38.5,250 38.5,500 461.5,500 461.5,250 461.5,0 38.5,0 "/>
</g></g><g transform="translate(360,306) scale(0.036,0.036)"><g transform="" style="fill: rgb(0, 0, 0);">
<polygon points="38.5,250 38.5,500 461.5,500 461.5,250 461.5,0 38.5,0 "/>
</g></g><g transform="translate(396,306) scale(0.036,0.036)"><g transform="" style="fill: rgb(0, 0, 0);">
<polygon points="38.5,250 38.5,500 461.5,500 461.5,250 461.5,0 38.5,0 "/>
</g></g><g transform="translate(450,306) scale(0.036,0.036)"><g transform="" style="fill: rgb(0, 0, 0);">
<path d="M250,38.5c116.813,0,211.5,94.693,211.5,211.5c0,116.813-94.687,211.5-211.5,211.5c-116.807,0-211.5-94.687-211.5-211.5
	C38.5,133.193,133.193,38.5,250,38.5z"/>
</g></g><g transform="translate(486,306) scale(0.036,0.036)"><g transform="" style="fill: rgb(0, 0, 0);">
<path d="M461.5,288.5c0-42.907,0-123.188,0-171.55c0-23.857,0-39.95,0-39.95V59.5V30V0h-423v30v29.5V77c0,0,0,16.216,0,39.95
	c0,51.332,0,137.84,0,171.55C38.5,405.301,133.2,500,250,500C366.809,500,461.5,405.301,461.5,288.5z"/>
</g></g><g transform="translate(0,324) scale(0.036,0.036)"><g transform="" style="fill: rgb(0, 0, 0);">
<polygon points="38.5,250 38.5,500 461.5,500 461.5,250 461.5,0 38.5,0 "/>
</g></g><g transform="translate(18,324) scale(0.036,0.036)"><g transform="" style="fill: rgb(0, 0, 0);">
<path d="M38.5,211.5c0,42.907,0,123.188,0,171.55c0,23.857,0,39.95,0,39.95v17.5V470v30h423v-30v-29.5V423c0,0,0-16.216,0-39.95
	c0-51.332,0-137.84,0-171.55C461.5,94.699,366.8,0,250,0C133.191,0,38.5,94.699,38.5,211.5z"/>
</g></g><g transform="translate(36,324) scale(0.036,0.036)"><g transform="" style="fill: rgb(0, 0, 0);">
<path d="M461.5,288.5c0-42.907,0-123.188,0-171.55c0-23.857,0-39.95,0-39.95V59.5V30V0h-423v30v29.5V77c0,0,0,16.216,0,39.95
	c0,51.332,0,137.84,0,171.55C38.5,405.301,133.2,500,250,500C366.809,500,461.5,405.301,461.5,288.5z"/>
</g></g><g transform="translate(72,324) scale(0.036,0.036)"><g transform="" style="fill: rgb(0, 0, 0);">
<path d="M461.5,288.5c0-42.907,0-123.188,0-171.55c0-23.857,0-39.95,0-39.95V59.5V30V0h-423v30v29.5V77c0,0,0,16.216,0,39.95
	c0,51.332,0,137.84,0,171.55C38.5,405.301,133.2,500,250,500C366.809,500,461.5,405.301,461.5,288.5z"/>
</g></g><g transform="translate(90,324) scale(0.036,0.036)"><g transform="" style="fill: rgb(0, 0, 0);">
<path d="M461.5,288.5c0-42.907,0-123.188,0-171.55c0-23.857,0-39.95,0-39.95V59.5V30V0h-423v30v29.5V77c0,0,0,16.216,0,39.95
	c0,51.332,0,137.84,0,171.55C38.5,405.301,133.2,500,250,500C366.809,500,461.5,405.301,461.5,288.5z"/>
</g></g><g transform="translate(108,324) scale(0.036,0.036)"><g transform="" style="fill: rgb(0, 0, 0);">
<path d="M250,38.5c116.813,0,211.5,94.693,211.5,211.5c0,116.813-94.687,211.5-211.5,211.5c-116.807,0-211.5-94.687-211.5-211.5
	C38.5,133.193,133.193,38.5,250,38.5z"/>
</g></g><g transform="translate(144,324) scale(0.036,0.036)"><g transform="" style="fill: rgb(0, 0, 0);">
<polygon points="38.5,250 38.5,500 461.5,500 461.5,250 461.5,0 38.5,0 "/>
</g></g><g transform="translate(162,324) scale(0.036,0.036)"><g transform="" style="fill: rgb(0, 0, 0);">
<polygon points="38.5,250 38.5,500 461.5,500 461.5,250 461.5,0 38.5,0 "/>
</g></g><g transform="translate(360,324) scale(0.036,0.036)"><g transform="" style="fill: rgb(0, 0, 0);">
<path d="M461.5,288.5c0-42.907,0-123.188,0-171.55c0-23.857,0-39.95,0-39.95V59.5V30V0h-423v30v29.5V77c0,0,0,16.216,0,39.95
	c0,51.332,0,137.84,0,171.55C38.5,405.301,133.2,500,250,500C366.809,500,461.5,405.301,461.5,288.5z"/>
</g></g><g transform="translate(378,324) scale(0.036,0.036)"><g transform="" style="fill: rgb(0, 0, 0);">
<path d="M38.5,211.5c0,42.907,0,123.188,0,171.55c0,23.857,0,39.95,0,39.95v17.5V470v30h423v-30v-29.5V423c0,0,0-16.216,0-39.95
	c0-51.332,0-137.84,0-171.55C461.5,94.699,366.8,0,250,0C133.191,0,38.5,94.699,38.5,211.5z"/>
</g></g><g transform="translate(396,324) scale(0.036,0.036)"><g transform="" style="fill: rgb(0, 0, 0);">
<path d="M461.5,288.5c0-42.907,0-123.188,0-171.55c0-23.857,0-39.95,0-39.95V59.5V30V0h-423v30v29.5V77c0,0,0,16.216,0,39.95
	c0,51.332,0,137.84,0,171.55C38.5,405.301,133.2,500,250,500C366.809,500,461.5,405.301,461.5,288.5z"/>
</g></g><g transform="translate(414,324) scale(0.036,0.036)"><g transform="" style="fill: rgb(0, 0, 0);">
<path d="M38.5,211.5c0,42.907,0,123.188,0,171.55c0,23.857,0,39.95,0,39.95v17.5V470v30h423v-30v-29.5V423c0,0,0-16.216,0-39.95
	c0-51.332,0-137.84,0-171.55C461.5,94.699,366.8,0,250,0C133.191,0,38.5,94.699,38.5,211.5z"/>
</g></g><g transform="translate(468,324) scale(0.036,0.036)"><g transform="" style="fill: rgb(0, 0, 0);">
<path d="M38.5,211.5c0,42.907,0,123.188,0,171.55c0,23.857,0,39.95,0,39.95v17.5V470v30h423v-30v-29.5V423c0,0,0-16.216,0-39.95
	c0-51.332,0-137.84,0-171.55C461.5,94.699,366.8,0,250,0C133.191,0,38.5,94.699,38.5,211.5z"/>
</g></g><g transform="translate(504,324) scale(0.036,0.036)"><g transform="" style="fill: rgb(0, 0, 0);">
<path d="M250,38.5c116.813,0,211.5,94.693,211.5,211.5c0,116.813-94.687,211.5-211.5,211.5c-116.807,0-211.5-94.687-211.5-211.5
	C38.5,133.193,133.193,38.5,250,38.5z"/>
</g></g><g transform="translate(0,342) scale(0.036,0.036)"><g transform="" style="fill: rgb(0, 0, 0);">
<polygon points="38.5,250 38.5,500 461.5,500 461.5,250 461.5,0 38.5,0 "/>
</g></g><g transform="translate(18,342) scale(0.036,0.036)"><g transform="" style="fill: rgb(0, 0, 0);">
<polygon points="38.5,250 38.5,500 461.5,500 461.5,250 461.5,0 38.5,0 "/>
</g></g><g transform="translate(54,342) scale(0.036,0.036)"><g transform="" style="fill: rgb(0, 0, 0);">
<path d="M250,38.5c116.813,0,211.5,94.693,211.5,211.5c0,116.813-94.687,211.5-211.5,211.5c-116.807,0-211.5-94.687-211.5-211.5
	C38.5,133.193,133.193,38.5,250,38.5z"/>
</g></g><g transform="translate(144,342) scale(0.036,0.036)"><g transform="" style="fill: rgb(0, 0, 0);">
<path d="M461.5,288.5c0-42.907,0-123.188,0-171.55c0-23.857,0-39.95,0-39.95V59.5V30V0h-423v30v29.5V77c0,0,0,16.216,0,39.95
	c0,51.332,0,137.84,0,171.55C38.5,405.301,133.2,500,250,500C366.809,500,461.5,405.301,461.5,288.5z"/>
</g></g><g transform="translate(162,342) scale(0.036,0.036)"><g transform="" style="fill: rgb(0, 0, 0);">
<polygon points="38.5,250 38.5,500 461.5,500 461.5,250 461.5,0 38.5,0 "/>
</g></g><g transform="translate(180,342) scale(0.036,0.036)"><g transform="" style="fill: rgb(0, 0, 0);">
<path d="M38.5,211.5c0,42.907,0,123.188,0,171.55c0,23.857,0,39.95,0,39.95v17.5V470v30h423v-30v-29.5V423c0,0,0-16.216,0-39.95
	c0-51.332,0-137.84,0-171.55C461.5,94.699,366.8,0,250,0C133.191,0,38.5,94.699,38.5,211.5z"/>
</g></g><g transform="translate(198,342) scale(0.036,0.036)"><g transform="" style="fill: rgb(0, 0, 0);">
<path d="M250,38.5c116.813,0,211.5,94.693,211.5,211.5c0,116.813-94.687,211.5-211.5,211.5c-116.807,0-211.5-94.687-211.5-211.5
	C38.5,133.193,133.193,38.5,250,38.5z"/>
</g></g><g transform="translate(216,342) scale(0.036,0.036)"><g transform="" style="fill: rgb(0, 0, 0);">
<path d="M250,38.5c116.813,0,211.5,94.693,211.5,211.5c0,116.813-94.687,211.5-211.5,211.5c-116.807,0-211.5-94.687-211.5-211.5
	C38.5,133.193,133.193,38.5,250,38.5z"/>
</g></g><g transform="translate(234,342) scale(0.036,0.036)"><g transform="" style="fill: rgb(0, 0, 0);">
<path d="M38.5,211.5c0,42.907,0,123.188,0,171.55c0,23.857,0,39.95,0,39.95v17.5V470v30h423v-30v-29.5V423c0,0,0-16.216,0-39.95
	c0-51.332,0-137.84,0-171.55C461.5,94.699,366.8,0,250,0C133.191,0,38.5,94.699,38.5,211.5z"/>
</g></g><g transform="translate(252,342) scale(0.036,0.036)"><g transform="" style="fill: rgb(0, 0, 0);">
<path d="M38.5,211.5c0,42.907,0,123.188,0,171.55c0,23.857,0,39.95,0,39.95v17.5V470v30h423v-30v-29.5V423c0,0,0-16.216,0-39.95
	c0-51.332,0-137.84,0-171.55C461.5,94.699,366.8,0,250,0C133.191,0,38.5,94.699,38.5,211.5z"/>
</g></g><g transform="translate(306,342) scale(0.036,0.036)"><g transform="" style="fill: rgb(0, 0, 0);">
<path d="M250,38.5c116.813,0,211.5,94.693,211.5,211.5c0,116.813-94.687,211.5-211.5,211.5c-116.807,0-211.5-94.687-211.5-211.5
	C38.5,133.193,133.193,38.5,250,38.5z"/>
</g></g><g transform="translate(324,342) scale(0.036,0.036)"><g transform="" style="fill: rgb(0, 0, 0);">
<path d="M38.5,211.5c0,42.907,0,123.188,0,171.55c0,23.857,0,39.95,0,39.95v17.5V470v30h423v-30v-29.5V423c0,0,0-16.216,0-39.95
	c0-51.332,0-137.84,0-171.55C461.5,94.699,366.8,0,250,0C133.191,0,38.5,94.699,38.5,211.5z"/>
</g></g><g transform="translate(378,342) scale(0.036,0.036)"><g transform="" style="fill: rgb(0, 0, 0);">
<polygon points="38.5,250 38.5,500 461.5,500 461.5,250 461.5,0 38.5,0 "/>
</g></g><g transform="translate(414,342) scale(0.036,0.036)"><g transform="" style="fill: rgb(0, 0, 0);">
<polygon points="38.5,250 38.5,500 461.5,500 461.5,250 461.5,0 38.5,0 "/>
</g></g><g transform="translate(450,342) scale(0.036,0.036)"><g transform="" style="fill: rgb(0, 0, 0);">
<path d="M250,38.5c116.813,0,211.5,94.693,211.5,211.5c0,116.813-94.687,211.5-211.5,211.5c-116.807,0-211.5-94.687-211.5-211.5
	C38.5,133.193,133.193,38.5,250,38.5z"/>
</g></g><g transform="translate(468,342) scale(0.036,0.036)"><g transform="" style="fill: rgb(0, 0, 0);">
<polygon points="38.5,250 38.5,500 461.5,500 461.5,250 461.5,0 38.5,0 "/>
</g></g><g transform="translate(0,360) scale(0.036,0.036)"><g transform="" style="fill: rgb(0, 0, 0);">
<path d="M461.5,288.5c0-42.907,0-123.188,0-171.55c0-23.857,0-39.95,0-39.95V59.5V30V0h-423v30v29.5V77c0,0,0,16.216,0,39.95
	c0,51.332,0,137.84,0,171.55C38.5,405.301,133.2,500,250,500C366.809,500,461.5,405.301,461.5,288.5z"/>
</g></g><g transform="translate(18,360) scale(0.036,0.036)"><g transform="" style="fill: rgb(0, 0, 0);">
<path d="M461.5,288.5c0-42.907,0-123.188,0-171.55c0-23.857,0-39.95,0-39.95V59.5V30V0h-423v30v29.5V77c0,0,0,16.216,0,39.95
	c0,51.332,0,137.84,0,171.55C38.5,405.301,133.2,500,250,500C366.809,500,461.5,405.301,461.5,288.5z"/>
</g></g><g transform="translate(36,360) scale(0.036,0.036)"><g transform="" style="fill: rgb(0, 0, 0);">
<path d="M250,38.5c116.813,0,211.5,94.693,211.5,211.5c0,116.813-94.687,211.5-211.5,211.5c-116.807,0-211.5-94.687-211.5-211.5
	C38.5,133.193,133.193,38.5,250,38.5z"/>
</g></g><g transform="translate(72,360) scale(0.036,0.036)"><g transform="" style="fill: rgb(0, 0, 0);">
<path d="M250,38.5c116.813,0,211.5,94.693,211.5,211.5c0,116.813-94.687,211.5-211.5,211.5c-116.807,0-211.5-94.687-211.5-211.5
	C38.5,133.193,133.193,38.5,250,38.5z"/>
</g></g><g transform="translate(108,360) scale(0.036,0.036)"><g transform="" style="fill: rgb(0, 0, 0);">
<path d="M250,38.5c116.813,0,211.5,94.693,211.5,211.5c0,116.813-94.687,211.5-211.5,211.5c-116.807,0-211.5-94.687-211.5-211.5
	C38.5,133.193,133.193,38.5,250,38.5z"/>
</g></g><g transform="translate(162,360) scale(0.036,0.036)"><g transform="" style="fill: rgb(0, 0, 0);">
<path d="M461.5,288.5c0-42.907,0-123.188,0-171.55c0-23.857,0-39.95,0-39.95V59.5V30V0h-423v30v29.5V77c0,0,0,16.216,0,39.95
	c0,51.332,0,137.84,0,171.55C38.5,405.301,133.2,500,250,500C366.809,500,461.5,405.301,461.5,288.5z"/>
</g></g><g transform="translate(180,360) scale(0.036,0.036)"><g transform="" style="fill: rgb(0, 0, 0);">
<path d="M461.5,288.5c0-42.907,0-123.188,0-171.55c0-23.857,0-39.95,0-39.95V59.5V30V0h-423v30v29.5V77c0,0,0,16.216,0,39.95
	c0,51.332,0,137.84,0,171.55C38.5,405.301,133.2,500,250,500C366.809,500,461.5,405.301,461.5,288.5z"/>
</g></g><g transform="translate(234,360) scale(0.036,0.036)"><g transform="" style="fill: rgb(0, 0, 0);">
<path d="M461.5,288.5c0-42.907,0-123.188,0-171.55c0-23.857,0-39.95,0-39.95V59.5V30V0h-423v30v29.5V77c0,0,0,16.216,0,39.95
	c0,51.332,0,137.84,0,171.55C38.5,405.301,133.2,500,250,500C366.809,500,461.5,405.301,461.5,288.5z"/>
</g></g><g transform="translate(252,360) scale(0.036,0.036)"><g transform="" style="fill: rgb(0, 0, 0);">
<polygon points="38.5,250 38.5,500 461.5,500 461.5,250 461.5,0 38.5,0 "/>
</g></g><g transform="translate(288,360) scale(0.036,0.036)"><g transform="" style="fill: rgb(0, 0, 0);">
<path d="M38.5,211.5c0,42.907,0,123.188,0,171.55c0,23.857,0,39.95,0,39.95v17.5V470v30h423v-30v-29.5V423c0,0,0-16.216,0-39.95
	c0-51.332,0-137.84,0-171.55C461.5,94.699,366.8,0,250,0C133.191,0,38.5,94.699,38.5,211.5z"/>
</g></g><g transform="translate(324,360) scale(0.036,0.036)"><g transform="" style="fill: rgb(0, 0, 0);">
<polygon points="38.5,250 38.5,500 461.5,500 461.5,250 461.5,0 38.5,0 "/>
</g></g><g transform="translate(360,360) scale(0.036,0.036)"><g transform="" style="fill: rgb(0, 0, 0);">
<path d="M38.5,211.5c0,42.907,0,123.188,0,171.55c0,23.857,0,39.95,0,39.95v17.5V470v30h423v-30v-29.5V423c0,0,0-16.216,0-39.95
	c0-51.332,0-137.84,0-171.55C461.5,94.699,366.8,0,250,0C133.191,0,38.5,94.699,38.5,211.5z"/>
</g></g><g transform="translate(378,360) scale(0.036,0.036)"><g transform="" style="fill: rgb(0, 0, 0);">
<path d="M461.5,288.5c0-42.907,0-123.188,0-171.55c0-23.857,0-39.95,0-39.95V59.5V30V0h-423v30v29.5V77c0,0,0,16.216,0,39.95
	c0,51.332,0,137.84,0,171.55C38.5,405.301,133.2,500,250,500C366.809,500,461.5,405.301,461.5,288.5z"/>
</g></g><g transform="translate(396,360) scale(0.036,0.036)"><g transform="" style="fill: rgb(0, 0, 0);">
<path d="M250,38.5c116.813,0,211.5,94.693,211.5,211.5c0,116.813-94.687,211.5-211.5,211.5c-116.807,0-211.5-94.687-211.5-211.5
	C38.5,133.193,133.193,38.5,250,38.5z"/>
</g></g><g transform="translate(414,360) scale(0.036,0.036)"><g transform="" style="fill: rgb(0, 0, 0);">
<path d="M461.5,288.5c0-42.907,0-123.188,0-171.55c0-23.857,0-39.95,0-39.95V59.5V30V0h-423v30v29.5V77c0,0,0,16.216,0,39.95
	c0,51.332,0,137.84,0,171.55C38.5,405.301,133.2,500,250,500C366.809,500,461.5,405.301,461.5,288.5z"/>
</g></g><g transform="translate(432,360) scale(0.036,0.036)"><g transform="" style="fill: rgb(0, 0, 0);">
<path d="M38.5,211.5c0,42.907,0,123.188,0,171.55c0,23.857,0,39.95,0,39.95v17.5V470v30h423v-30v-29.5V423c0,0,0-16.216,0-39.95
	c0-51.332,0-137.84,0-171.55C461.5,94.699,366.8,0,250,0C133.191,0,38.5,94.699,38.5,211.5z"/>
</g></g><g transform="translate(468,360) scale(0.036,0.036)"><g transform="" style="fill: rgb(0, 0, 0);">
<path d="M461.5,288.5c0-42.907,0-123.188,0-171.55c0-23.857,0-39.95,0-39.95V59.5V30V0h-423v30v29.5V77c0,0,0,16.216,0,39.95
	c0,51.332,0,137.84,0,171.55C38.5,405.301,133.2,500,250,500C366.809,500,461.5,405.301,461.5,288.5z"/>
</g></g><g transform="translate(486,360) scale(0.036,0.036)"><g transform="" style="fill: rgb(0, 0, 0);">
<path d="M38.5,211.5c0,42.907,0,123.188,0,171.55c0,23.857,0,39.95,0,39.95v17.5V470v30h423v-30v-29.5V423c0,0,0-16.216,0-39.95
	c0-51.332,0-137.84,0-171.55C461.5,94.699,366.8,0,250,0C133.191,0,38.5,94.699,38.5,211.5z"/>
</g></g><g transform="translate(504,360) scale(0.036,0.036)"><g transform="" style="fill: rgb(0, 0, 0);">
<path d="M250,38.5c116.813,0,211.5,94.693,211.5,211.5c0,116.813-94.687,211.5-211.5,211.5c-116.807,0-211.5-94.687-211.5-211.5
	C38.5,133.193,133.193,38.5,250,38.5z"/>
</g></g><g transform="translate(144,378) scale(0.036,0.036)"><g transform="" style="fill: rgb(0, 0, 0);">
<path d="M38.5,211.5c0,42.907,0,123.188,0,171.55c0,23.857,0,39.95,0,39.95v17.5V470v30h423v-30v-29.5V423c0,0,0-16.216,0-39.95
	c0-51.332,0-137.84,0-171.55C461.5,94.699,366.8,0,250,0C133.191,0,38.5,94.699,38.5,211.5z"/>
</g></g><g transform="translate(198,378) scale(0.036,0.036)"><g transform="" style="fill: rgb(0, 0, 0);">
<path d="M250,38.5c116.813,0,211.5,94.693,211.5,211.5c0,116.813-94.687,211.5-211.5,211.5c-116.807,0-211.5-94.687-211.5-211.5
	C38.5,133.193,133.193,38.5,250,38.5z"/>
</g></g><g transform="translate(252,378) scale(0.036,0.036)"><g transform="" style="fill: rgb(0, 0, 0);">
<polygon points="38.5,250 38.5,500 461.5,500 461.5,250 461.5,0 38.5,0 "/>
</g></g><g transform="translate(270,378) scale(0.036,0.036)"><g transform="" style="fill: rgb(0, 0, 0);">
<path d="M38.5,211.5c0,42.907,0,123.188,0,171.55c0,23.857,0,39.95,0,39.95v17.5V470v30h423v-30v-29.5V423c0,0,0-16.216,0-39.95
	c0-51.332,0-137.84,0-171.55C461.5,94.699,366.8,0,250,0C133.191,0,38.5,94.699,38.5,211.5z"/>
</g></g><g transform="translate(288,378) scale(0.036,0.036)"><g transform="" style="fill: rgb(0, 0, 0);">
<polygon points="38.5,250 38.5,500 461.5,500 461.5,250 461.5,0 38.5,0 "/>
</g></g><g transform="translate(324,378) scale(0.036,0.036)"><g transform="" style="fill: rgb(0, 0, 0);">
<path d="M461.5,288.5c0-42.907,0-123.188,0-171.55c0-23.857,0-39.95,0-39.95V59.5V30V0h-423v30v29.5V77c0,0,0,16.216,0,39.95
	c0,51.332,0,137.84,0,171.55C38.5,405.301,133.2,500,250,500C366.809,500,461.5,405.301,461.5,288.5z"/>
</g></g><g transform="translate(342,378) scale(0.036,0.036)"><g transform="" style="fill: rgb(0, 0, 0);">
<path d="M38.5,211.5c0,42.907,0,123.188,0,171.55c0,23.857,0,39.95,0,39.95v17.5V470v30h423v-30v-29.5V423c0,0,0-16.216,0-39.95
	c0-51.332,0-137.84,0-171.55C461.5,94.699,366.8,0,250,0C133.191,0,38.5,94.699,38.5,211.5z"/>
</g></g><g transform="translate(360,378) scale(0.036,0.036)"><g transform="" style="fill: rgb(0, 0, 0);">
<polygon points="38.5,250 38.5,500 461.5,500 461.5,250 461.5,0 38.5,0 "/>
</g></g><g transform="translate(432,378) scale(0.036,0.036)"><g transform="" style="fill: rgb(0, 0, 0);">
<polygon points="38.5,250 38.5,500 461.5,500 461.5,250 461.5,0 38.5,0 "/>
</g></g><g transform="translate(450,378) scale(0.036,0.036)"><g transform="" style="fill: rgb(0, 0, 0);">
<path d="M250,38.5c116.813,0,211.5,94.693,211.5,211.5c0,116.813-94.687,211.5-211.5,211.5c-116.807,0-211.5-94.687-211.5-211.5
	C38.5,133.193,133.193,38.5,250,38.5z"/>
</g></g><g transform="translate(486,378) scale(0.036,0.036)"><g transform="" style="fill: rgb(0, 0, 0);">
<polygon points="38.5,250 38.5,500 461.5,500 461.5,250 461.5,0 38.5,0 "/>
</g></g><g transform="translate(144,396) scale(0.036,0.036)"><g transform="" style="fill: rgb(0, 0, 0);">
<path d="M461.5,288.5c0-42.907,0-123.188,0-171.55c0-23.857,0-39.95,0-39.95V59.5V30V0h-423v30v29.5V77c0,0,0,16.216,0,39.95
	c0,51.332,0,137.84,0,171.55C38.5,405.301,133.2,500,250,500C366.809,500,461.5,405.301,461.5,288.5z"/>
</g></g><g transform="translate(162,396) scale(0.036,0.036)"><g transform="" style="fill: rgb(0, 0, 0);">
<path d="M38.5,211.5c0,42.907,0,123.188,0,171.55c0,23.857,0,39.95,0,39.95v17.5V470v30h423v-30v-29.5V423c0,0,0-16.216,0-39.95
	c0-51.332,0-137.84,0-171.55C461.5,94.699,366.8,0,250,0C133.191,0,38.5,94.699,38.5,211.5z"/>
</g></g><g transform="translate(216,396) scale(0.036,0.036)"><g transform="" style="fill: rgb(0, 0, 0);">
<path d="M250,38.5c116.813,0,211.5,94.693,211.5,211.5c0,116.813-94.687,211.5-211.5,211.5c-116.807,0-211.5-94.687-211.5-211.5
	C38.5,133.193,133.193,38.5,250,38.5z"/>
</g></g><g transform="translate(234,396) scale(0.036,0.036)"><g transform="" style="fill: rgb(0, 0, 0);">
<path d="M38.5,211.5c0,42.907,0,123.188,0,171.55c0,23.857,0,39.95,0,39.95v17.5V470v30h423v-30v-29.5V423c0,0,0-16.216,0-39.95
	c0-51.332,0-137.84,0-171.55C461.5,94.699,366.8,0,250,0C133.191,0,38.5,94.699,38.5,211.5z"/>
</g></g><g transform="translate(252,396) scale(0.036,0.036)"><g transform="" style="fill: rgb(0, 0, 0);">
<polygon points="38.5,250 38.5,500 461.5,500 461.5,250 461.5,0 38.5,0 "/>
</g></g><g transform="translate(270,396) scale(0.036,0.036)"><g transform="" style="fill: rgb(0, 0, 0);">
<polygon points="38.5,250 38.5,500 461.5,500 461.5,250 461.5,0 38.5,0 "/>
</g></g><g transform="translate(288,396) scale(0.036,0.036)"><g transform="" style="fill: rgb(0, 0, 0);">
<path d="M461.5,288.5c0-42.907,0-123.188,0-171.55c0-23.857,0-39.95,0-39.95V59.5V30V0h-423v30v29.5V77c0,0,0,16.216,0,39.95
	c0,51.332,0,137.84,0,171.55C38.5,405.301,133.2,500,250,500C366.809,500,461.5,405.301,461.5,288.5z"/>
</g></g><g transform="translate(306,396) scale(0.036,0.036)"><g transform="" style="fill: rgb(0, 0, 0);">
<path d="M250,38.5c116.813,0,211.5,94.693,211.5,211.5c0,116.813-94.687,211.5-211.5,211.5c-116.807,0-211.5-94.687-211.5-211.5
	C38.5,133.193,133.193,38.5,250,38.5z"/>
</g></g><g transform="translate(342,396) scale(0.036,0.036)"><g transform="" style="fill: rgb(0, 0, 0);">
<path d="M461.5,288.5c0-42.907,0-123.188,0-171.55c0-23.857,0-39.95,0-39.95V59.5V30V0h-423v30v29.5V77c0,0,0,16.216,0,39.95
	c0,51.332,0,137.84,0,171.55C38.5,405.301,133.2,500,250,500C366.809,500,461.5,405.301,461.5,288.5z"/>
</g></g><g transform="translate(360,396) scale(0.036,0.036)"><g transform="" style="fill: rgb(0, 0, 0);">
<polygon points="38.5,250 38.5,500 461.5,500 461.5,250 461.5,0 38.5,0 "/>
</g></g><g transform="translate(396,396) scale(0.036,0.036)"><g transform="" style="fill: rgb(0, 0, 0);">
<path d="M250,38.5c116.813,0,211.5,94.693,211.5,211.5c0,116.813-94.687,211.5-211.5,211.5c-116.807,0-211.5-94.687-211.5-211.5
	C38.5,133.193,133.193,38.5,250,38.5z"/>
</g></g><g transform="translate(432,396) scale(0.036,0.036)"><g transform="" style="fill: rgb(0, 0, 0);">
<polygon points="38.5,250 38.5,500 461.5,500 461.5,250 461.5,0 38.5,0 "/>
</g></g><g transform="translate(468,396) scale(0.036,0.036)"><g transform="" style="fill: rgb(0, 0, 0);">
<path d="M250,38.5c116.813,0,211.5,94.693,211.5,211.5c0,116.813-94.687,211.5-211.5,211.5c-116.807,0-211.5-94.687-211.5-211.5
	C38.5,133.193,133.193,38.5,250,38.5z"/>
</g></g><g transform="translate(486,396) scale(0.036,0.036)"><g transform="" style="fill: rgb(0, 0, 0);">
<polygon points="38.5,250 38.5,500 461.5,500 461.5,250 461.5,0 38.5,0 "/>
</g></g><g transform="translate(162,414) scale(0.036,0.036)"><g transform="" style="fill: rgb(0, 0, 0);">
<path d="M461.5,288.5c0-42.907,0-123.188,0-171.55c0-23.857,0-39.95,0-39.95V59.5V30V0h-423v30v29.5V77c0,0,0,16.216,0,39.95
	c0,51.332,0,137.84,0,171.55C38.5,405.301,133.2,500,250,500C366.809,500,461.5,405.301,461.5,288.5z"/>
</g></g><g transform="translate(198,414) scale(0.036,0.036)"><g transform="" style="fill: rgb(0, 0, 0);">
<path d="M38.5,211.5c0,42.907,0,123.188,0,171.55c0,23.857,0,39.95,0,39.95v17.5V470v30h423v-30v-29.5V423c0,0,0-16.216,0-39.95
	c0-51.332,0-137.84,0-171.55C461.5,94.699,366.8,0,250,0C133.191,0,38.5,94.699,38.5,211.5z"/>
</g></g><g transform="translate(234,414) scale(0.036,0.036)"><g transform="" style="fill: rgb(0, 0, 0);">
<path d="M461.5,288.5c0-42.907,0-123.188,0-171.55c0-23.857,0-39.95,0-39.95V59.5V30V0h-423v30v29.5V77c0,0,0,16.216,0,39.95
	c0,51.332,0,137.84,0,171.55C38.5,405.301,133.2,500,250,500C366.809,500,461.5,405.301,461.5,288.5z"/>
</g></g><g transform="translate(252,414) scale(0.036,0.036)"><g transform="" style="fill: rgb(0, 0, 0);">
<path d="M461.5,288.5c0-42.907,0-123.188,0-171.55c0-23.857,0-39.95,0-39.95V59.5V30V0h-423v30v29.5V77c0,0,0,16.216,0,39.95
	c0,51.332,0,137.84,0,171.55C38.5,405.301,133.2,500,250,500C366.809,500,461.5,405.301,461.5,288.5z"/>
</g></g><g transform="translate(270,414) scale(0.036,0.036)"><g transform="" style="fill: rgb(0, 0, 0);">
<path d="M461.5,288.5c0-42.907,0-123.188,0-171.55c0-23.857,0-39.95,0-39.95V59.5V30V0h-423v30v29.5V77c0,0,0,16.216,0,39.95
	c0,51.332,0,137.84,0,171.55C38.5,405.301,133.2,500,250,500C366.809,500,461.5,405.301,461.5,288.5z"/>
</g></g><g transform="translate(324,414) scale(0.036,0.036)"><g transform="" style="fill: rgb(0, 0, 0);">
<path d="M250,38.5c116.813,0,211.5,94.693,211.5,211.5c0,116.813-94.687,211.5-211.5,211.5c-116.807,0-211.5-94.687-211.5-211.5
	C38.5,133.193,133.193,38.5,250,38.5z"/>
</g></g><g transform="translate(360,414) scale(0.036,0.036)"><g transform="" style="fill: rgb(0, 0, 0);">
<polygon points="38.5,250 38.5,500 461.5,500 461.5,250 461.5,0 38.5,0 "/>
</g></g><g transform="translate(432,414) scale(0.036,0.036)"><g transform="" style="fill: rgb(0, 0, 0);">
<polygon points="38.5,250 38.5,500 461.5,500 461.5,250 461.5,0 38.5,0 "/>
</g></g><g transform="translate(486,414) scale(0.036,0.036)"><g transform="" style="fill: rgb(0, 0, 0);">
<polygon points="38.5,250 38.5,500 461.5,500 461.5,250 461.5,0 38.5,0 "/>
</g></g><g transform="translate(144,432) scale(0.036,0.036)"><g transform="" style="fill: rgb(0, 0, 0);">
<path d="M38.5,211.5c0,42.907,0,123.188,0,171.55c0,23.857,0,39.95,0,39.95v17.5V470v30h423v-30v-29.5V423c0,0,0-16.216,0-39.95
	c0-51.332,0-137.84,0-171.55C461.5,94.699,366.8,0,250,0C133.191,0,38.5,94.699,38.5,211.5z"/>
</g></g><g transform="translate(180,432) scale(0.036,0.036)"><g transform="" style="fill: rgb(0, 0, 0);">
<path d="M250,38.5c116.813,0,211.5,94.693,211.5,211.5c0,116.813-94.687,211.5-211.5,211.5c-116.807,0-211.5-94.687-211.5-211.5
	C38.5,133.193,133.193,38.5,250,38.5z"/>
</g></g><g transform="translate(198,432) scale(0.036,0.036)"><g transform="" style="fill: rgb(0, 0, 0);">
<path d="M461.5,288.5c0-42.907,0-123.188,0-171.55c0-23.857,0-39.95,0-39.95V59.5V30V0h-423v30v29.5V77c0,0,0,16.216,0,39.95
	c0,51.332,0,137.84,0,171.55C38.5,405.301,133.2,500,250,500C366.809,500,461.5,405.301,461.5,288.5z"/>
</g></g><g transform="translate(216,432) scale(0.036,0.036)"><g transform="" style="fill: rgb(0, 0, 0);">
<path d="M38.5,211.5c0,42.907,0,123.188,0,171.55c0,23.857,0,39.95,0,39.95v17.5V470v30h423v-30v-29.5V423c0,0,0-16.216,0-39.95
	c0-51.332,0-137.84,0-171.55C461.5,94.699,366.8,0,250,0C133.191,0,38.5,94.699,38.5,211.5z"/>
</g></g><g transform="translate(288,432) scale(0.036,0.036)"><g transform="" style="fill: rgb(0, 0, 0);">
<path d="M250,38.5c116.813,0,211.5,94.693,211.5,211.5c0,116.813-94.687,211.5-211.5,211.5c-116.807,0-211.5-94.687-211.5-211.5
	C38.5,133.193,133.193,38.5,250,38.5z"/>
</g></g><g transform="translate(306,432) scale(0.036,0.036)"><g transform="" style="fill: rgb(0, 0, 0);">
<path d="M38.5,211.5c0,42.907,0,123.188,0,171.55c0,23.857,0,39.95,0,39.95v17.5V470v30h423v-30v-29.5V423c0,0,0-16.216,0-39.95
	c0-51.332,0-137.84,0-171.55C461.5,94.699,366.8,0,250,0C133.191,0,38.5,94.699,38.5,211.5z"/>
</g></g><g transform="translate(342,432) scale(0.036,0.036)"><g transform="" style="fill: rgb(0, 0, 0);">
<path d="M38.5,211.5c0,42.907,0,123.188,0,171.55c0,23.857,0,39.95,0,39.95v17.5V470v30h423v-30v-29.5V423c0,0,0-16.216,0-39.95
	c0-51.332,0-137.84,0-171.55C461.5,94.699,366.8,0,250,0C133.191,0,38.5,94.699,38.5,211.5z"/>
</g></g><g transform="translate(360,432) scale(0.036,0.036)"><g transform="" style="fill: rgb(0, 0, 0);">
<path d="M461.5,288.5c0-42.907,0-123.188,0-171.55c0-23.857,0-39.95,0-39.95V59.5V30V0h-423v30v29.5V77c0,0,0,16.216,0,39.95
	c0,51.332,0,137.84,0,171.55C38.5,405.301,133.2,500,250,500C366.809,500,461.5,405.301,461.5,288.5z"/>
</g></g><g transform="translate(378,432) scale(0.036,0.036)"><g transform="" style="fill: rgb(0, 0, 0);">
<path d="M250,38.5c116.813,0,211.5,94.693,211.5,211.5c0,116.813-94.687,211.5-211.5,211.5c-116.807,0-211.5-94.687-211.5-211.5
	C38.5,133.193,133.193,38.5,250,38.5z"/>
</g></g><g transform="translate(396,432) scale(0.036,0.036)"><g transform="" style="fill: rgb(0, 0, 0);">
<path d="M250,38.5c116.813,0,211.5,94.693,211.5,211.5c0,116.813-94.687,211.5-211.5,211.5c-116.807,0-211.5-94.687-211.5-211.5
	C38.5,133.193,133.193,38.5,250,38.5z"/>
</g></g><g transform="translate(414,432) scale(0.036,0.036)"><g transform="" style="fill: rgb(0, 0, 0);">
<path d="M250,38.5c116.813,0,211.5,94.693,211.5,211.5c0,116.813-94.687,211.5-211.5,211.5c-116.807,0-211.5-94.687-211.5-211.5
	C38.5,133.193,133.193,38.5,250,38.5z"/>
</g></g><g transform="translate(432,432) scale(0.036,0.036)"><g transform="" style="fill: rgb(0, 0, 0);">
<path d="M461.5,288.5c0-42.907,0-123.188,0-171.55c0-23.857,0-39.95,0-39.95V59.5V30V0h-423v30v29.5V77c0,0,0,16.216,0,39.95
	c0,51.332,0,137.84,0,171.55C38.5,405.301,133.2,500,250,500C366.809,500,461.5,405.301,461.5,288.5z"/>
</g></g><g transform="translate(486,432) scale(0.036,0.036)"><g transform="" style="fill: rgb(0, 0, 0);">
<polygon points="38.5,250 38.5,500 461.5,500 461.5,250 461.5,0 38.5,0 "/>
</g></g><g transform="translate(504,432) scale(0.036,0.036)"><g transform="" style="fill: rgb(0, 0, 0);">
<path d="M250,38.5c116.813,0,211.5,94.693,211.5,211.5c0,116.813-94.687,211.5-211.5,211.5c-116.807,0-211.5-94.687-211.5-211.5
	C38.5,133.193,133.193,38.5,250,38.5z"/>
</g></g><g transform="translate(144,450) scale(0.036,0.036)"><g transform="" style="fill: rgb(0, 0, 0);">
<path d="M461.5,288.5c0-42.907,0-123.188,0-171.55c0-23.857,0-39.95,0-39.95V59.5V30V0h-423v30v29.5V77c0,0,0,16.216,0,39.95
	c0,51.332,0,137.84,0,171.55C38.5,405.301,133.2,500,250,500C366.809,500,461.5,405.301,461.5,288.5z"/>
</g></g><g transform="translate(216,450) scale(0.036,0.036)"><g transform="" style="fill: rgb(0, 0, 0);">
<path d="M461.5,288.5c0-42.907,0-123.188,0-171.55c0-23.857,0-39.95,0-39.95V59.5V30V0h-423v30v29.5V77c0,0,0,16.216,0,39.95
	c0,51.332,0,137.84,0,171.55C38.5,405.301,133.2,500,250,500C366.809,500,461.5,405.301,461.5,288.5z"/>
</g></g><g transform="translate(234,450) scale(0.036,0.036)"><g transform="" style="fill: rgb(0, 0, 0);">
<path d="M250,38.5c116.813,0,211.5,94.693,211.5,211.5c0,116.813-94.687,211.5-211.5,211.5c-116.807,0-211.5-94.687-211.5-211.5
	C38.5,133.193,133.193,38.5,250,38.5z"/>
</g></g><g transform="translate(306,450) scale(0.036,0.036)"><g transform="" style="fill: rgb(0, 0, 0);">
<path d="M461.5,288.5c0-42.907,0-123.188,0-171.55c0-23.857,0-39.95,0-39.95V59.5V30V0h-423v30v29.5V77c0,0,0,16.216,0,39.95
	c0,51.332,0,137.84,0,171.55C38.5,405.301,133.2,500,250,500C366.809,500,461.5,405.301,461.5,288.5z"/>
</g></g><g transform="translate(342,450) scale(0.036,0.036)"><g transform="" style="fill: rgb(0, 0, 0);">
<path d="M461.5,288.5c0-42.907,0-123.188,0-171.55c0-23.857,0-39.95,0-39.95V59.5V30V0h-423v30v29.5V77c0,0,0,16.216,0,39.95
	c0,51.332,0,137.84,0,171.55C38.5,405.301,133.2,500,250,500C366.809,500,461.5,405.301,461.5,288.5z"/>
</g></g><g transform="translate(468,450) scale(0.036,0.036)"><g transform="" style="fill: rgb(0, 0, 0);">
<path d="M38.5,211.5c0,42.907,0,123.188,0,171.55c0,23.857,0,39.95,0,39.95v17.5V470v30h423v-30v-29.5V423c0,0,0-16.216,0-39.95
	c0-51.332,0-137.84,0-171.55C461.5,94.699,366.8,0,250,0C133.191,0,38.5,94.699,38.5,211.5z"/>
</g></g><g transform="translate(486,450) scale(0.036,0.036)"><g transform="" style="fill: rgb(0, 0, 0);">
<polygon points="38.5,250 38.5,500 461.5,500 461.5,250 461.5,0 38.5,0 "/>
</g></g><g transform="translate(162,468) scale(0.036,0.036)"><g transform="" style="fill: rgb(0, 0, 0);">
<path d="M250,38.5c116.813,0,211.5,94.693,211.5,211.5c0,116.813-94.687,211.5-211.5,211.5c-116.807,0-211.5-94.687-211.5-211.5
	C38.5,133.193,133.193,38.5,250,38.5z"/>
</g></g><g transform="translate(198,468) scale(0.036,0.036)"><g transform="" style="fill: rgb(0, 0, 0);">
<path d="M38.5,211.5c0,42.907,0,123.188,0,171.55c0,23.857,0,39.95,0,39.95v17.5V470v30h423v-30v-29.5V423c0,0,0-16.216,0-39.95
	c0-51.332,0-137.84,0-171.55C461.5,94.699,366.8,0,250,0C133.191,0,38.5,94.699,38.5,211.5z"/>
</g></g><g transform="translate(252,468) scale(0.036,0.036)"><g transform="" style="fill: rgb(0, 0, 0);">
<path d="M250,38.5c116.813,0,211.5,94.693,211.5,211.5c0,116.813-94.687,211.5-211.5,211.5c-116.807,0-211.5-94.687-211.5-211.5
	C38.5,133.193,133.193,38.5,250,38.5z"/>
</g></g><g transform="translate(288,468) scale(0.036,0.036)"><g transform="" style="fill: rgb(0, 0, 0);">
<path d="M250,38.5c116.813,0,211.5,94.693,211.5,211.5c0,116.813-94.687,211.5-211.5,211.5c-116.807,0-211.5-94.687-211.5-211.5
	C38.5,133.193,133.193,38.5,250,38.5z"/>
</g></g><g transform="translate(324,468) scale(0.036,0.036)"><g transform="" style="fill: rgb(0, 0, 0);">
<path d="M250,38.5c116.813,0,211.5,94.693,211.5,211.5c0,116.813-94.687,211.5-211.5,211.5c-116.807,0-211.5-94.687-211.5-211.5
	C38.5,133.193,133.193,38.5,250,38.5z"/>
</g></g><g transform="translate(432,468) scale(0.036,0.036)"><g transform="" style="fill: rgb(0, 0, 0);">
<path d="M250,38.5c116.813,0,211.5,94.693,211.5,211.5c0,116.813-94.687,211.5-211.5,211.5c-116.807,0-211.5-94.687-211.5-211.5
	C38.5,133.193,133.193,38.5,250,38.5z"/>
</g></g><g transform="translate(450,468) scale(0.036,0.036)"><g transform="" style="fill: rgb(0, 0, 0);">
<path d="M250,38.5c116.813,0,211.5,94.693,211.5,211.5c0,116.813-94.687,211.5-211.5,211.5c-116.807,0-211.5-94.687-211.5-211.5
	C38.5,133.193,133.193,38.5,250,38.5z"/>
</g></g><g transform="translate(468,468) scale(0.036,0.036)"><g transform="" style="fill: rgb(0, 0, 0);">
<polygon points="38.5,250 38.5,500 461.5,500 461.5,250 461.5,0 38.5,0 "/>
</g></g><g transform="translate(486,468) scale(0.036,0.036)"><g transform="" style="fill: rgb(0, 0, 0);">
<path d="M461.5,288.5c0-42.907,0-123.188,0-171.55c0-23.857,0-39.95,0-39.95V59.5V30V0h-423v30v29.5V77c0,0,0,16.216,0,39.95
	c0,51.332,0,137.84,0,171.55C38.5,405.301,133.2,500,250,500C366.809,500,461.5,405.301,461.5,288.5z"/>
</g></g><g transform="translate(504,468) scale(0.036,0.036)"><g transform="" style="fill: rgb(0, 0, 0);">
<path d="M38.5,211.5c0,42.907,0,123.188,0,171.55c0,23.857,0,39.95,0,39.95v17.5V470v30h423v-30v-29.5V423c0,0,0-16.216,0-39.95
	c0-51.332,0-137.84,0-171.55C461.5,94.699,366.8,0,250,0C133.191,0,38.5,94.699,38.5,211.5z"/>
</g></g><g transform="translate(180,486) scale(0.036,0.036)"><g transform="" style="fill: rgb(0, 0, 0);">
<path d="M38.5,211.5c0,42.907,0,123.188,0,171.55c0,23.857,0,39.95,0,39.95v17.5V470v30h423v-30v-29.5V423c0,0,0-16.216,0-39.95
	c0-51.332,0-137.84,0-171.55C461.5,94.699,366.8,0,250,0C133.191,0,38.5,94.699,38.5,211.5z"/>
</g></g><g transform="translate(198,486) scale(0.036,0.036)"><g transform="" style="fill: rgb(0, 0, 0);">
<polygon points="38.5,250 38.5,500 461.5,500 461.5,250 461.5,0 38.5,0 "/>
</g></g><g transform="translate(234,486) scale(0.036,0.036)"><g transform="" style="fill: rgb(0, 0, 0);">
<path d="M250,38.5c116.813,0,211.5,94.693,211.5,211.5c0,116.813-94.687,211.5-211.5,211.5c-116.807,0-211.5-94.687-211.5-211.5
	C38.5,133.193,133.193,38.5,250,38.5z"/>
</g></g><g transform="translate(270,486) scale(0.036,0.036)"><g transform="" style="fill: rgb(0, 0, 0);">
<path d="M38.5,211.5c0,42.907,0,123.188,0,171.55c0,23.857,0,39.95,0,39.95v17.5V470v30h423v-30v-29.5V423c0,0,0-16.216,0-39.95
	c0-51.332,0-137.84,0-171.55C461.5,94.699,366.8,0,250,0C133.191,0,38.5,94.699,38.5,211.5z"/>
</g></g><g transform="translate(306,486) scale(0.036,0.036)"><g transform="" style="fill: rgb(0, 0, 0);">
<path d="M38.5,211.5c0,42.907,0,123.188,0,171.55c0,23.857,0,39.95,0,39.95v17.5V470v30h423v-30v-29.5V423c0,0,0-16.216,0-39.95
	c0-51.332,0-137.84,0-171.55C461.5,94.699,366.8,0,250,0C133.191,0,38.5,94.699,38.5,211.5z"/>
</g></g><g transform="translate(342,486) scale(0.036,0.036)"><g transform="" style="fill: rgb(0, 0, 0);">
<path d="M250,38.5c116.813,0,211.5,94.693,211.5,211.5c0,116.813-94.687,211.5-211.5,211.5c-116.807,0-211.5-94.687-211.5-211.5
	C38.5,133.193,133.193,38.5,250,38.5z"/>
</g></g><g transform="translate(360,486) scale(0.036,0.036)"><g transform="" style="fill: rgb(0, 0, 0);">
<path d="M38.5,211.5c0,42.907,0,123.188,0,171.55c0,23.857,0,39.95,0,39.95v17.5V470v30h423v-30v-29.5V423c0,0,0-16.216,0-39.95
	c0-51.332,0-137.84,0-171.55C461.5,94.699,366.8,0,250,0C133.191,0,38.5,94.699,38.5,211.5z"/>
</g></g><g transform="translate(396,486) scale(0.036,0.036)"><g transform="" style="fill: rgb(0, 0, 0);">
<path d="M250,38.5c116.813,0,211.5,94.693,211.5,211.5c0,116.813-94.687,211.5-211.5,211.5c-116.807,0-211.5-94.687-211.5-211.5
	C38.5,133.193,133.193,38.5,250,38.5z"/>
</g></g><g transform="translate(468,486) scale(0.036,0.036)"><g transform="" style="fill: rgb(0, 0, 0);">
<polygon points="38.5,250 38.5,500 461.5,500 461.5,250 461.5,0 38.5,0 "/>
</g></g><g transform="translate(504,486) scale(0.036,0.036)"><g transform="" style="fill: rgb(0, 0, 0);">
<path d="M461.5,288.5c0-42.907,0-123.188,0-171.55c0-23.857,0-39.95,0-39.95V59.5V30V0h-423v30v29.5V77c0,0,0,16.216,0,39.95
	c0,51.332,0,137.84,0,171.55C38.5,405.301,133.2,500,250,500C366.809,500,461.5,405.301,461.5,288.5z"/>
</g></g><g transform="translate(162,504) scale(0.036,0.036)"><g transform="" style="fill: rgb(0, 0, 0);">
<path d="M250,38.5c116.813,0,211.5,94.693,211.5,211.5c0,116.813-94.687,211.5-211.5,211.5c-116.807,0-211.5-94.687-211.5-211.5
	C38.5,133.193,133.193,38.5,250,38.5z"/>
</g></g><g transform="translate(180,504) scale(0.036,0.036)"><g transform="" style="fill: rgb(0, 0, 0);">
<path d="M461.5,288.5c0-42.907,0-123.188,0-171.55c0-23.857,0-39.95,0-39.95V59.5V30V0h-423v30v29.5V77c0,0,0,16.216,0,39.95
	c0,51.332,0,137.84,0,171.55C38.5,405.301,133.2,500,250,500C366.809,500,461.5,405.301,461.5,288.5z"/>
</g></g><g transform="translate(198,504) scale(0.036,0.036)"><g transform="" style="fill: rgb(0, 0, 0);">
<path d="M461.5,288.5c0-42.907,0-123.188,0-171.55c0-23.857,0-39.95,0-39.95V59.5V30V0h-423v30v29.5V77c0,0,0,16.216,0,39.95
	c0,51.332,0,137.84,0,171.55C38.5,405.301,133.2,500,250,500C366.809,500,461.5,405.301,461.5,288.5z"/>
</g></g><g transform="translate(252,504) scale(0.036,0.036)"><g transform="" style="fill: rgb(0, 0, 0);">
<path d="M250,38.5c116.813,0,211.5,94.693,211.5,211.5c0,116.813-94.687,211.5-211.5,211.5c-116.807,0-211.5-94.687-211.5-211.5
	C38.5,133.193,133.193,38.5,250,38.5z"/>
</g></g><g transform="translate(270,504) scale(0.036,0.036)"><g transform="" style="fill: rgb(0, 0, 0);">
<path d="M461.5,288.5c0-42.907,0-123.188,0-171.55c0-23.857,0-39.95,0-39.95V59.5V30V0h-423v30v29.5V77c0,0,0,16.216,0,39.95
	c0,51.332,0,137.84,0,171.55C38.5,405.301,133.2,500,250,500C366.809,500,461.5,405.301,461.5,288.5z"/>
</g></g><g transform="translate(288,504) scale(0.036,0.036)"><g transform="" style="fill: rgb(0, 0, 0);">
<path d="M250,38.5c116.813,0,211.5,94.693,211.5,211.5c0,116.813-94.687,211.5-211.5,211.5c-116.807,0-211.5-94.687-211.5-211.5
	C38.5,133.193,133.193,38.5,250,38.5z"/>
</g></g><g transform="translate(306,504) scale(0.036,0.036)"><g transform="" style="fill: rgb(0, 0, 0);">
<path d="M461.5,288.5c0-42.907,0-123.188,0-171.55c0-23.857,0-39.95,0-39.95V59.5V30V0h-423v30v29.5V77c0,0,0,16.216,0,39.95
	c0,51.332,0,137.84,0,171.55C38.5,405.301,133.2,500,250,500C366.809,500,461.5,405.301,461.5,288.5z"/>
</g></g><g transform="translate(360,504) scale(0.036,0.036)"><g transform="" style="fill: rgb(0, 0, 0);">
<path d="M461.5,288.5c0-42.907,0-123.188,0-171.55c0-23.857,0-39.95,0-39.95V59.5V30V0h-423v30v29.5V77c0,0,0,16.216,0,39.95
	c0,51.332,0,137.84,0,171.55C38.5,405.301,133.2,500,250,500C366.809,500,461.5,405.301,461.5,288.5z"/>
</g></g><g transform="translate(414,504) scale(0.036,0.036)"><g transform="" style="fill: rgb(0, 0, 0);">
<path d="M250,38.5c116.813,0,211.5,94.693,211.5,211.5c0,116.813-94.687,211.5-211.5,211.5c-116.807,0-211.5-94.687-211.5-211.5
	C38.5,133.193,133.193,38.5,250,38.5z"/>
</g></g><g transform="translate(468,504) scale(0.036,0.036)"><g transform="" style="fill: rgb(0, 0, 0);">
<path d="M461.5,288.5c0-42.907,0-123.188,0-171.55c0-23.857,0-39.95,0-39.95V59.5V30V0h-423v30v29.5V77c0,0,0,16.216,0,39.95
	c0,51.332,0,137.84,0,171.55C38.5,405.301,133.2,500,250,500C366.809,500,461.5,405.301,461.5,288.5z"/>
</g></g><g transform="translate(0,0) scale(1.2352941176471, 1.2352941176471)"><g transform="" style="fill: rgb(0, 0, 0);">
<g>
	<path style="fill:none;" d="M51,16c-19.299,0-35,15.701-35,35s15.701,35,35,35s35-15.701,35-35S70.299,16,51,16z"/>
	<path d="M51,1C23.387,1,1,23.387,1,51s22.387,50,50,50s50-22.387,50-50S78.613,1,51,1z M51,86c-19.299,0-35-15.701-35-35
		s15.701-35,35-35s35,15.701,35,35S70.299,86,51,86z"/>
</g>
</g></g><g transform="translate(396,0) scale(1.2352941176471, 1.2352941176471)"><g transform="" style="fill: rgb(0, 0, 0);">
<g>
	<path style="fill:none;" d="M51,16c-19.299,0-35,15.701-35,35s15.701,35,35,35s35-15.701,35-35S70.299,16,51,16z"/>
	<path d="M51,1C23.387,1,1,23.387,1,51s22.387,50,50,50s50-22.387,50-50S78.613,1,51,1z M51,86c-19.299,0-35-15.701-35-35
		s15.701-35,35-35s35,15.701,35,35S70.299,86,51,86z"/>
</g>
</g></g><g transform="translate(0,396) scale(1.2352941176471, 1.2352941176471)"><g transform="" style="fill: rgb(0, 0, 0);">
<g>
	<path style="fill:none;" d="M51,16c-19.299,0-35,15.701-35,35s15.701,35,35,35s35-15.701,35-35S70.299,16,51,16z"/>
	<path d="M51,1C23.387,1,1,23.387,1,51s22.387,50,50,50s50-22.387,50-50S78.613,1,51,1z M51,86c-19.299,0-35-15.701-35-35
		s15.701-35,35-35s35,15.701,35,35S70.299,86,51,86z"/>
</g>
</g></g><g transform="translate(36,36) scale(0.54, 0.54)"><g transform="" style="fill: rgb(0, 0, 0);">
<g>
	<g id="XMLID_1_">
		<g>
			<path d="M27.351,100c-15.09,0-27.365-12.032-27.365-26.808V26.794c0-4.616,1.2-8.96,3.301-12.761
				c2.029-3.658,4.901-6.802,8.36-9.174C16.09,1.801,21.506,0,27.336,0h45.327c15.076,0,27.351,12.018,27.351,26.793v46.398
				c0,14.775-12.274,26.808-27.351,26.808H50H27.351z"/>
		</g>
		<g>
		</g>
	</g>
</g>
</g></g><g transform="translate(432,36) scale(0.54, 0.54)"><g transform="" style="fill: rgb(0, 0, 0);">
<g>
	<g id="XMLID_1_">
		<g>
			<path d="M27.351,100c-15.09,0-27.365-12.032-27.365-26.808V26.794c0-4.616,1.2-8.96,3.301-12.761
				c2.029-3.658,4.901-6.802,8.36-9.174C16.09,1.801,21.506,0,27.336,0h45.327c15.076,0,27.351,12.018,27.351,26.793v46.398
				c0,14.775-12.274,26.808-27.351,26.808H50H27.351z"/>
		</g>
		<g>
		</g>
	</g>
</g>
</g></g><g transform="translate(36,432) scale(0.54, 0.54)"><g transform="" style="fill: rgb(0, 0, 0);">
<g>
	<g id="XMLID_1_">
		<g>
			<path d="M27.351,100c-15.09,0-27.365-12.032-27.365-26.808V26.794c0-4.616,1.2-8.96,3.301-12.761
				c2.029-3.658,4.901-6.802,8.36-9.174C16.09,1.801,21.506,0,27.336,0h45.327c15.076,0,27.351,12.018,27.351,26.793v46.398
				c0,14.775-12.274,26.808-27.351,26.808H50H27.351z"/>
		</g>
		<g>
		</g>
	</g>
</g>
</g></g><g transform="translate(180,180) scale(0.162,0.162)" width="162" height="162"><svg
   xmlns:dc="http://purl.org/dc/elements/1.1/"
   xmlns:cc="http://creativecommons.org/ns#"
   xmlns:rdf="http://www.w3.org/1999/02/22-rdf-syntax-ns#"
   xmlns:svg="http://www.w3.org/2000/svg"
   xmlns="http://www.w3.org/2000/svg"
   version="1.1"
   width="1000"
   height="1000"
   viewBox="0 0 1000 1000"
   id="svg6742">
  <defs
     id="defs6744" />
  <metadata
     id="metadata6747">
    <rdf:RDF>
      <cc:Work
         rdf:about="">
        <dc:format>image/svg+xml</dc:format>
        <dc:type
           rdf:resource="http://purl.org/dc/dcmitype/StillImage" />
        <dc:title></dc:title>
      </cc:Work>
    </rdf:RDF>
  </metadata>
  <g
     transform="translate(0,-52.362183)"
     id="layer1">
    <g
       transform="matrix(7.2949437,0,0,7.2949437,-4613.7556,-4483.7956)"
       id="g6887">
      <path
         d="m 632.45938,690.36093 c 0,-37.85374 30.68624,-68.53999 68.53999,-68.53999 37.85376,0 68.54126,30.68625 68.54126,68.53999 0,37.855 -30.6875,68.5425 -68.54126,68.5425 -37.85375,0 -68.53999,-30.6875 -68.53999,-68.5425"
         id="path3858"
         style="fill:#7b519d;fill-opacity:1;fill-rule:nonzero;stroke:none" />
      <path
         d="m 731.06313,706.05843 c -2.21,-1.78 -4.57125,-3.3775 -6.89626,-5.00875 -4.63749,-3.2575 -8.87749,-3.51 -12.33875,1.73 -1.9425,2.94125 -4.66125,3.07 -7.50624,1.78 -7.84125,-3.55625 -13.89501,-9.0325 -17.44251,-17.00249 -1.5675,-3.525 -1.54749,-6.68625 2.12376,-9.18 1.9425,-1.31875 3.90125,-2.87875 3.745,-5.76125 -0.20375,-3.7575 -9.32751,-16.31375 -12.93126,-17.63875 -1.49,-0.54875 -2.97499,-0.51375 -4.49124,0 -8.44875,2.84 -11.94626,9.7875 -8.59626,18.01375 9.99626,24.54249 27.59001,41.62624 51.80625,52.05749 1.38125,0.59125 2.91625,0.83 3.6925,1.0425 5.51251,0.0562 11.97126,-5.2575 13.83751,-10.53 1.795,-5.07125 -2,-7.08375 -5.0025,-9.5"
         id="path3860"
         style="fill:#f1f2f2;fill-opacity:1;fill-rule:nonzero;stroke:none" />
      <path
         d="m 703.90813,656.52844 c 17.70624,2.7225 25.87,11.14125 28.125,28.9725 0.2075,1.6475 -0.405,4.12624 1.94499,4.17249 2.45626,0.0463 1.86376,-2.39499 1.88501,-4.04374 0.2075,-16.795 -14.43626,-32.36375 -31.44251,-32.9375 -1.28374,0.18375 -3.9375,-0.885 -4.10375,1.99 -0.10999,1.93875 2.12625,1.62125 3.59126,1.84625"
         id="path3862"
         style="fill:#f1f2f2;fill-opacity:1;fill-rule:nonzero;stroke:none" />
      <path
         d="m 707.37188,661.41719 c -1.70375,-0.20375 -3.95001,-1.0075 -4.35,1.35625 -0.41376,2.48 2.09,2.22875 3.70124,2.58875 10.93501,2.44375 14.74126,6.42375 16.5425,17.27 0.26251,1.58125 -0.25874,4.0425 2.4275,3.63375 1.99126,-0.3025 1.27376,-2.41125 1.44001,-3.645 0.0888,-10.4125 -8.83626,-19.89125 -19.76125,-21.20375"
         id="path3864"
         style="fill:#f1f2f2;fill-opacity:1;fill-rule:nonzero;stroke:none" />
      <path
         d="m 708.37688,669.93344 c -1.13751,0.0275 -2.25251,0.15 -2.67,1.36625 -0.62876,1.815 0.69249,2.2475 2.035,2.46375 4.48624,0.72125 6.84499,3.365 7.29499,7.8375 0.12001,1.215 0.89126,2.1975 2.06376,2.06 1.625,-0.19375 1.7725,-1.64 1.72249,-3.015 0.0813,-5.025 -5.59875,-10.8325 -10.44624,-10.7125"
         id="path3866"
         style="fill:#f1f2f2;fill-opacity:1;fill-rule:nonzero;stroke:none" />
    </g>
  </g>
</svg>
</g></g></svg>