<svg width="640" height="480" xmlns="http://www.w3.org/2000/svg" xmlns:svg="http://www.w3.org/2000/svg" xmlns:xlink="http://www.w3.org/1999/xlink">
 <defs>
  <symbol id="svg_1" viewBox="0 0 100 125" y="0px" x="0px" xmlns="http://www.w3.org/2000/svg" xmlns:svg="http://www.w3.org/2000/svg">
   <g transform="translate(0,-952.36218)">
    <path fill="#000000" stroke-width="2" d="m70.1875,972.375a1.0001,1.0001 0 0 0 -0.53125,0.28125l-13.375,14a1.0001,1.0001 0 0 0 0,1.40625l7,7a1.00548,1.00548 0 1 0 1.4375,-1.40625l-6.3125,-6.3125l12,-12.53125l3.96875,3.96875c4.83207,4.83203 4.83209,12.57408 0,17.40625l-30.5625,30.5625c-4.83206,4.8321 -12.57418,4.8321 -17.40625,0l-3.96875,-4l12.53125,-12l6.3125,6.3125a1.0001,1.0001 0 0 0 1.4375,0l18,-18a1.00548,1.00548 0 1 0 -1.4375,-1.40625l-17.28125,17.28125l-6.28125,-6.2813a1.0001,1.0001 0 0 0 -1.40625,-0.031l-14,13.4062a1.0001,1.0001 0 0 0 -0.03125,1.4376l4.71875,4.6872c5.59108,5.5912 14.62768,5.5912 20.21875,0l30.59375,-30.56245c5.59107,-5.59117 5.59109,-14.65897 0,-20.25l-4.71875,-4.6875a1.0001,1.0001 0 0 0 -0.90625,-0.28125z"/>
   </g>
  </symbol>
 </defs>
 <g>
  <use x="-98.31835" y="-74.62479" transform="matrix(1.8354829604299456,0,0,1.8354829604299456,-94.34588425564388,24.377315238115994) " xlink:href="#svg_1" id="svg_2"/>
  <g id="svg_3"/>
 </g>
</svg>